<?xml version="1.0" encoding="utf-8"?>
<!-- Generator: Adobe Illustrator 16.0.0, SVG Export Plug-In . SVG Version: 6.00 Build 0)  -->
<!DOCTYPE svg PUBLIC "-//W3C//DTD SVG 1.1//EN" "http://www.w3.org/Graphics/SVG/1.1/DTD/svg11.dtd">
<svg version="1.1" id="Layer_1" xmlns="http://www.w3.org/2000/svg" xmlns:xlink="http://www.w3.org/1999/xlink" x="0px" y="0px"
	 width="640px" height="480px" viewBox="0 0 640 480" enable-background="new 0 0 640 480" xml:space="preserve">
<polyline fill="none" stroke="#3953A4" stroke-miterlimit="10" points="284.451,142 284.451,165.5 284.451,192.5 284.451,222.5 
	284.451,257 284.451,286 284.451,318.5 284.451,342 284.451,354 "/>
<polyline fill="none" stroke="#3953A4" stroke-miterlimit="10" points="302.476,142 302.476,165.5 302.476,192.5 302.476,222.5 
	302.476,257 302.476,286 302.476,318.5 302.476,342 302.476,354 "/>
<polyline fill="none" stroke="#3953A4" stroke-miterlimit="10" points="374.572,142 374.572,165.5 374.572,192.5 374.572,222.5 
	374.572,257 374.572,286 374.572,318.5 374.572,342 374.572,354 "/>
<polyline fill="none" stroke="#3953A4" stroke-miterlimit="10" points="266.426,142 266.426,165.5 266.426,192.5 266.426,222.5 
	266.426,257 266.426,286 266.426,318.5 266.426,342 266.426,354 "/>
<polyline fill="none" stroke="#3953A4" stroke-miterlimit="10" points="338.523,142 338.523,165.5 338.523,192.5 338.523,222.5 
	338.523,257 338.523,286 338.523,318.5 338.523,342 338.523,354 "/>
<polyline fill="none" stroke="#3953A4" stroke-miterlimit="10" points="356.547,142 356.547,165.5 356.547,192.5 356.547,222.5 
	356.547,257 356.547,286 356.547,318.5 356.547,342 356.547,354 "/>
<polyline fill="none" stroke="#3953A4" stroke-width="0.7612" stroke-miterlimit="10" points="381.45,227.104 367.832,227.104 
	352.188,227.104 334.803,227.104 314.811,227.104 298.006,227.104 279.173,227.104 265.555,227.104 258.602,227.104 "/>
<polyline fill="none" stroke="#3953A4" stroke-width="0.7612" stroke-miterlimit="10" points="381.45,209 367.832,209 352.188,209 
	334.803,209 314.811,209 298.006,209 279.173,209 265.555,209 258.602,209 "/>
<polyline fill="none" stroke="#3953A4" stroke-width="0.7612" stroke-miterlimit="10" points="381.45,190.896 367.832,190.896 
	352.188,190.896 334.803,190.896 314.811,190.896 298.006,190.896 279.173,190.896 265.555,190.896 258.602,190.896 "/>
<polyline fill="none" stroke="#3953A4" stroke-width="0.7612" stroke-miterlimit="10" points="381.45,281.416 367.832,281.416 
	352.188,281.416 334.803,281.416 314.811,281.416 298.006,281.416 279.173,281.416 265.555,281.416 258.602,281.416 "/>
<polyline fill="none" stroke="#3953A4" stroke-width="0.7612" stroke-miterlimit="10" points="381.45,299.521 367.832,299.521 
	352.188,299.521 334.803,299.521 314.811,299.521 298.006,299.521 279.173,299.521 265.555,299.521 258.602,299.521 "/>
<polyline fill="none" stroke="#3953A4" stroke-width="0.7612" stroke-miterlimit="10" points="381.45,263.312 367.832,263.312 
	352.188,263.312 334.803,263.312 314.811,263.312 298.006,263.312 279.173,263.312 265.555,263.312 258.602,263.312 "/>
</svg>
