<?xml version="1.0" encoding="utf-8"?>
<!-- Generator: Adobe Illustrator 16.0.0, SVG Export Plug-In . SVG Version: 6.00 Build 0)  -->
<!DOCTYPE svg PUBLIC "-//W3C//DTD SVG 1.1//EN" "http://www.w3.org/Graphics/SVG/1.1/DTD/svg11.dtd">
<svg version="1.1" id="Layer_1" xmlns="http://www.w3.org/2000/svg" xmlns:xlink="http://www.w3.org/1999/xlink" x="0px" y="0px"
	 width="640px" height="480px" viewBox="0 0 640 480" enable-background="new 0 0 640 480" xml:space="preserve">
<path fill="none" stroke="#3953A4" stroke-width="0.2991" stroke-miterlimit="10" d="M360.751,223.833
	c0,11.425-4.702,21.751-12.276,29.151c-7.346,7.177-17.394,11.6-28.475,11.6c-22.506,0-40.75-18.244-40.75-40.75
	c0-12.096,5.271-22.961,13.64-30.424c7.203-6.423,16.701-10.326,27.11-10.326C342.506,183.083,360.751,201.327,360.751,223.833z"/>
<path fill="none" stroke="#3953A4" stroke-width="0.2991" stroke-miterlimit="10" d="M331.935,252.65
	c0,12.159-5.325,23.074-13.771,30.54c-7.187,6.354-16.634,10.21-26.98,10.21c-11.021,0-21.02-4.375-28.354-11.482
	c-7.645-7.407-12.396-17.782-12.396-29.268c0-11.432,4.707-21.764,12.289-29.164c7.345-7.169,17.388-11.587,28.462-11.587
	C313.689,211.899,331.935,230.144,331.935,252.65z"/>
<path fill="none" stroke="#3953A4" stroke-width="0.2991" stroke-miterlimit="10" d="M389.566,195.018
	c0,9.22-3.062,17.725-8.225,24.552c-7.439,9.84-19.239,16.198-32.525,16.198c-22.506,0-40.751-18.244-40.751-40.75
	c0-12.421,5.558-23.544,14.322-31.019c7.116-6.068,16.345-9.732,26.429-9.732c11.166,0,21.283,4.492,28.645,11.766
	C384.936,173.42,389.566,183.678,389.566,195.018z"/>
</svg>
