<?xml version="1.0" encoding="utf-8"?>
<!-- Generator: Adobe Illustrator 16.0.0, SVG Export Plug-In . SVG Version: 6.00 Build 0)  -->
<!DOCTYPE svg PUBLIC "-//W3C//DTD SVG 1.1//EN" "http://www.w3.org/Graphics/SVG/1.1/DTD/svg11.dtd">
<svg version="1.1" id="Layer_1" xmlns="http://www.w3.org/2000/svg" xmlns:xlink="http://www.w3.org/1999/xlink" x="0px" y="0px"
	 width="640px" height="480px" viewBox="0 0 640 480" enable-background="new 0 0 640 480" xml:space="preserve">
<path fill="none" stroke="#3953A4" stroke-width="0.2991" stroke-miterlimit="10" d="M389.653,194.931
	c0,5.487-1.085,10.721-3.052,15.499c-2.129,5.17-5.288,9.807-9.225,13.652c-7.347,7.177-17.395,11.6-28.476,11.6
	c-22.506,0-40.75-18.244-40.75-40.75c0-7.287,1.913-14.127,5.264-20.045c2.211-3.906,5.049-7.412,8.375-10.379
	c7.203-6.423,16.701-10.326,27.11-10.326c5.369,0,10.496,1.038,15.19,2.925c6.236,2.508,11.711,6.512,15.977,11.57
	c3.136,3.718,5.618,8.005,7.271,12.684C388.838,185.604,389.653,190.173,389.653,194.931z"/>
<path fill="none" stroke="#3953A4" stroke-width="0.2991" stroke-miterlimit="10" d="M331.936,252.65
	c0,12.158-5.326,23.074-13.771,30.539c-7.187,6.354-16.634,10.211-26.98,10.211c-11.021,0-21.02-4.375-28.354-11.482
	c-7.645-7.407-12.396-17.782-12.396-29.268c0-6.096,1.339-11.879,3.738-17.071c2.1-4.546,5.012-8.639,8.551-12.093
	c7.345-7.169,17.388-11.587,28.462-11.587c9.701,0,18.61,3.39,25.607,9.049C326.027,228.419,331.936,239.845,331.936,252.65z"/>
</svg>
