<?xml version="1.0" encoding="utf-8"?>
<!-- Generator: Adobe Illustrator 16.0.0, SVG Export Plug-In . SVG Version: 6.00 Build 0)  -->
<!DOCTYPE svg PUBLIC "-//W3C//DTD SVG 1.1//EN" "http://www.w3.org/Graphics/SVG/1.1/DTD/svg11.dtd">
<svg version="1.1" id="Layer_1" xmlns="http://www.w3.org/2000/svg" xmlns:xlink="http://www.w3.org/1999/xlink" x="0px" y="0px"
	 width="640px" height="480px" viewBox="0 0 640 480" enable-background="new 0 0 640 480" xml:space="preserve">
<path fill="none" stroke="#3953A4" stroke-width="0.3431" stroke-miterlimit="10" d="M320,223.51
	c-12.333,0-23.436-5.239-31.226-13.604c-5.94,5.772-10.209,13.256-12.002,21.657c-0.615,2.882-0.939,5.872-0.939,8.937
	c0,5.601,1.079,10.949,3.041,15.849c3.146,7.858,8.562,14.563,15.436,19.304c6.875,4.739,15.208,7.515,24.19,7.515
	c7.75,0,15.018-2.066,21.281-5.679c5.188-2.99,9.688-7.042,13.203-11.857c5.146-7.049,8.183-15.735,8.183-25.131
	c0-4.383-0.662-8.61-1.891-12.589c-1.919-6.218-5.224-11.828-9.551-16.474C342.042,218.905,331.562,223.51,320,223.51z"/>
</svg>
