<?xml version="1.0" encoding="utf-8"?>
<!-- Generator: Adobe Illustrator 16.0.0, SVG Export Plug-In . SVG Version: 6.00 Build 0)  -->
<!DOCTYPE svg PUBLIC "-//W3C//DTD SVG 1.1//EN" "http://www.w3.org/Graphics/SVG/1.1/DTD/svg11.dtd">
<svg version="1.1" id="Layer_1" xmlns="http://www.w3.org/2000/svg" xmlns:xlink="http://www.w3.org/1999/xlink" x="0px" y="0px"
	 width="640px" height="480px" viewBox="0 0 640 480" enable-background="new 0 0 640 480" xml:space="preserve">
<path fill="none" stroke="#3953A4" stroke-width="0.3431" stroke-miterlimit="10" d="M385.316,202.197
	c0-13.177-5.973-24.96-15.36-32.787c-7.399-6.169-16.919-9.88-27.306-9.88c-11.814,0-22.503,4.803-30.226,12.562
	c-7.434,7.468-12.119,17.676-12.413,28.978c-5.856,3.212-10.876,7.757-14.653,13.228c-4.747,6.876-7.526,15.215-7.526,24.204
	c0,13.479,6.251,25.498,16.012,33.317c7.303,5.851,16.57,9.35,26.655,9.35c12.885,0,24.432-5.712,32.251-14.741
	c6.252-7.221,10.121-16.562,10.388-26.799c7.062-3.874,12.91-9.688,16.824-16.725C383.373,216.771,385.316,209.711,385.316,202.197z
	"/>
</svg>
