<?xml version="1.0" encoding="utf-8"?>
<!-- Generator: Adobe Illustrator 16.0.0, SVG Export Plug-In . SVG Version: 6.00 Build 0)  -->
<!DOCTYPE svg PUBLIC "-//W3C//DTD SVG 1.1//EN" "http://www.w3.org/Graphics/SVG/1.1/DTD/svg11.dtd">
<svg version="1.1" id="Layer_1" xmlns="http://www.w3.org/2000/svg" xmlns:xlink="http://www.w3.org/1999/xlink" x="0px" y="0px"
	 width="640px" height="480px" viewBox="0 0 640 480" enable-background="new 0 0 640 480" xml:space="preserve">
<path fill="none" stroke="#3953A4" stroke-width="0.3431" stroke-miterlimit="10" d="M320.5,195.833
	c6.297,0,12.275,1.364,17.656,3.813c6.545,2.979,12.204,7.562,16.477,13.249c5.359,7.132,8.534,15.998,8.534,25.605
	c0,10.448-3.755,20.02-9.989,27.437c-4.16,4.95-9.426,8.941-15.415,11.594c-5.277,2.338-11.118,3.637-17.263,3.637
	c-6.666,0-12.974-1.528-18.594-4.254c-4.584-2.223-8.71-5.241-12.198-8.877c-3.361-3.504-6.131-7.579-8.148-12.067
	c-2.396-5.332-3.728-11.244-3.728-17.469c0-9.93,3.393-19.067,9.081-26.317C294.725,202.229,306.865,195.833,320.5,195.833z"/>
</svg>
