<?xml version="1.0" encoding="utf-8"?>
<!-- Generator: Adobe Illustrator 16.0.0, SVG Export Plug-In . SVG Version: 6.00 Build 0)  -->
<!DOCTYPE svg PUBLIC "-//W3C//DTD SVG 1.1//EN" "http://www.w3.org/Graphics/SVG/1.1/DTD/svg11.dtd">
<svg version="1.1" id="Layer_1" xmlns="http://www.w3.org/2000/svg" xmlns:xlink="http://www.w3.org/1999/xlink" x="0px" y="0px"
	 width="640px" height="480px" viewBox="0 0 640 480" enable-background="new 0 0 640 480" xml:space="preserve">
<polyline fill="none" stroke="#3953A4" stroke-width="0.3431" stroke-miterlimit="10" points="323.188,200.714 359.682,237.172 
	340.905,255.415 323.188,200.714 283.375,257.618 340.905,255.415 323.854,256.068 296.722,207.82 312.761,271.32 280.928,230.624 
	297.054,251.24 283.375,257.618 312.761,271.32 302.679,277.018 325.943,263.871 330.107,279.41 340.905,255.415 359.682,237.172 
	332.118,228.285 323.188,200.714 306.3,224.853 348.188,212.227 323.188,200.714 296.722,207.82 280.928,230.624 283.375,257.618 
	302.679,277.018 330.107,279.41 359.682,237.172 348.188,212.227 340.905,255.415 330.107,279.41 283.375,257.618 296.722,207.82 
	348.188,212.227 340.905,255.415 302.679,277.018 280.928,230.624 323.188,200.714 "/>
</svg>
