<?xml version="1.0" encoding="utf-8"?>
<!-- Generator: Adobe Illustrator 16.0.0, SVG Export Plug-In . SVG Version: 6.00 Build 0)  -->
<!DOCTYPE svg PUBLIC "-//W3C//DTD SVG 1.1//EN" "http://www.w3.org/Graphics/SVG/1.1/DTD/svg11.dtd">
<svg version="1.1" id="Layer_1" xmlns="http://www.w3.org/2000/svg" xmlns:xlink="http://www.w3.org/1999/xlink" x="0px" y="0px"
	 width="640px" height="480px" viewBox="0 0 640 480" enable-background="new 0 0 640 480" xml:space="preserve">
<path fill="none" stroke="#000000" stroke-miterlimit="10" d="M307,221.75l-8.759,3.754l-10.558,4.526L298,247.75l1.579,10.379
	l1.392,9.15L320.243,264l19.271,3.279l1.316-10.068l1.17-8.961l5.369-8.688l5.579-9.028L334.5,221.5l-12.812-15.616
	c8.817,0,16.533,3.355,22.238,8.858c6.451,6.222,10.332,15.189,10.332,25.157c0.001,5.408-1.262,10.52-3.506,15.06
	c-5.556,11.231-17.131,18.955-30.509,18.956c-14.208,0-26.383-8.713-31.472-21.087c-1.639-3.985-2.543-8.353-2.543-12.929
	c0-10.292,5.005-19.516,12.621-25.754c6.284-5.148,14.346-8.262,22.84-8.262L307,221.75z"/>
</svg>
