<?xml version="1.0" encoding="utf-8"?>
<!-- Generator: Adobe Illustrator 16.0.0, SVG Export Plug-In . SVG Version: 6.00 Build 0)  -->
<!DOCTYPE svg PUBLIC "-//W3C//DTD SVG 1.1//EN" "http://www.w3.org/Graphics/SVG/1.1/DTD/svg11.dtd">
<svg version="1.1" xmlns="http://www.w3.org/2000/svg" xmlns:xlink="http://www.w3.org/1999/xlink" x="0px" y="0px" width="640px"
	 height="480px" viewBox="0 0 640 480" enable-background="new 0 0 640 480" xml:space="preserve">
<g id="Layer_1">
</g>
<g id="Layer_5">
	<polygon fill="none" stroke="#3953A4" stroke-width="0.4657" stroke-miterlimit="10" points="281.055,265.367 283.495,261.142 
		287.899,253.514 292.241,245.994 296.745,238.193 301.248,230.393 304.194,225.29 305.783,222.538 310.164,214.95 314.636,207.204 
		318.915,199.792 323.54,191.783 327.711,199.006 332.469,207.247 335.105,211.813 336.993,215.083 341.262,222.476 
		342.866,225.255 345.859,230.44 350.403,238.311 354.766,245.866 358.459,252.265 359.386,253.871 363.726,261.387 
		366.023,265.367 358.5,265.367 350.375,265.367 342.75,265.367 335,265.367 327.624,265.367 319.5,265.367 312,265.367 
		304.25,265.367 296.5,265.367 289,265.367 	"/>
</g>
<g id="Layer_4">
</g>
<g id="Layer_3" display="none">
	<g display="inline">
		
			<line fill="none" stroke="#FF01A4" stroke-width="0.2691" stroke-miterlimit="10" x1="274" y1="191.783" x2="373.25" y2="191.783"/>
		
			<line fill="none" stroke="#FF01A4" stroke-width="0.2691" stroke-miterlimit="10" x1="274" y1="199.513" x2="373.25" y2="199.513"/>
		
			<line fill="none" stroke="#FF01A4" stroke-width="0.2691" stroke-miterlimit="10" x1="274" y1="207.245" x2="373.25" y2="207.245"/>
		
			<line fill="none" stroke="#FF01A4" stroke-width="0.2691" stroke-miterlimit="10" x1="274" y1="214.975" x2="373.25" y2="214.975"/>
		
			<line fill="none" stroke="#FF01A4" stroke-width="0.2691" stroke-miterlimit="10" x1="274" y1="222.706" x2="373.25" y2="222.706"/>
		
			<line fill="none" stroke="#FF01A4" stroke-width="0.2691" stroke-miterlimit="10" x1="274" y1="230.437" x2="373.25" y2="230.437"/>
		
			<line fill="none" stroke="#FF01A4" stroke-width="0.2691" stroke-miterlimit="10" x1="274" y1="238.168" x2="373.25" y2="238.168"/>
		
			<line fill="none" stroke="#FF01A4" stroke-width="0.2691" stroke-miterlimit="10" x1="274" y1="245.898" x2="373.25" y2="245.898"/>
		
			<line fill="none" stroke="#FF01A4" stroke-width="0.2691" stroke-miterlimit="10" x1="274" y1="253.629" x2="373.25" y2="253.629"/>
		<line fill="none" stroke="#FF01A4" stroke-width="0.2691" stroke-miterlimit="10" x1="274" y1="261.36" x2="373.25" y2="261.36"/>
		
			<line fill="none" stroke="#FF01A4" stroke-width="0.2691" stroke-miterlimit="10" x1="274" y1="269.091" x2="373.25" y2="269.091"/>
		
			<line fill="none" stroke="#FF01A4" stroke-width="0.2691" stroke-miterlimit="10" x1="274" y1="276.822" x2="373.25" y2="276.822"/>
	</g>
	<g display="inline">
		
			<line fill="none" stroke="#FF01A4" stroke-width="0.2691" stroke-miterlimit="10" x1="281.031" y1="182.75" x2="281.031" y2="283.25"/>
		
			<line fill="none" stroke="#FF01A4" stroke-width="0.2691" stroke-miterlimit="10" x1="288.761" y1="182.75" x2="288.761" y2="283.25"/>
		
			<line fill="none" stroke="#FF01A4" stroke-width="0.2691" stroke-miterlimit="10" x1="296.493" y1="182.75" x2="296.493" y2="283.25"/>
		
			<line fill="none" stroke="#FF01A4" stroke-width="0.2691" stroke-miterlimit="10" x1="304.223" y1="182.75" x2="304.223" y2="283.25"/>
		
			<line fill="none" stroke="#FF01A4" stroke-width="0.2691" stroke-miterlimit="10" x1="311.954" y1="182.75" x2="311.954" y2="283.25"/>
		
			<line fill="none" stroke="#FF01A4" stroke-width="0.2691" stroke-miterlimit="10" x1="319.686" y1="182.75" x2="319.686" y2="283.25"/>
		
			<line fill="none" stroke="#FF01A4" stroke-width="0.2691" stroke-miterlimit="10" x1="327.416" y1="182.75" x2="327.416" y2="283.25"/>
		
			<line fill="none" stroke="#FF01A4" stroke-width="0.2691" stroke-miterlimit="10" x1="335.146" y1="182.75" x2="335.146" y2="283.25"/>
		
			<line fill="none" stroke="#FF01A4" stroke-width="0.2691" stroke-miterlimit="10" x1="342.878" y1="182.75" x2="342.878" y2="283.25"/>
		
			<line fill="none" stroke="#FF01A4" stroke-width="0.2691" stroke-miterlimit="10" x1="350.608" y1="182.75" x2="350.608" y2="283.25"/>
		
			<line fill="none" stroke="#FF01A4" stroke-width="0.2691" stroke-miterlimit="10" x1="358.34" y1="182.75" x2="358.34" y2="283.25"/>
		
			<line fill="none" stroke="#FF01A4" stroke-width="0.2691" stroke-miterlimit="10" x1="366.07" y1="182.75" x2="366.07" y2="283.25"/>
	</g>
</g>
</svg>
