<?xml version="1.0" encoding="utf-8"?>
<!-- Generator: Adobe Illustrator 16.0.0, SVG Export Plug-In . SVG Version: 6.00 Build 0)  -->
<!DOCTYPE svg PUBLIC "-//W3C//DTD SVG 1.1//EN" "http://www.w3.org/Graphics/SVG/1.1/DTD/svg11.dtd">
<svg version="1.1" id="Layer_1" xmlns="http://www.w3.org/2000/svg" xmlns:xlink="http://www.w3.org/1999/xlink" x="0px" y="0px"
	 width="595.279px" height="841.89px" viewBox="0 0 595.279 841.89" enable-background="new 0 0 595.279 841.89"
	 xml:space="preserve">
<g id="Layer_2" display="none">
	
		<polyline display="inline" opacity="0.4" fill="none" stroke="#00FF20" stroke-width="2.126" stroke-miterlimit="10" enable-background="new    " points="
		271.378,405.781 271.378,436.072 297.612,420.926 271.378,405.781 297.612,420.926 297.612,390.634 297.612,420.926 
		323.845,405.781 297.612,420.926 323.845,436.072 297.612,420.926 297.612,451.216 323.845,436.072 323.845,405.781 
		297.612,390.634 271.378,405.781 	"/>
</g>
<g id="Layer_1_1_">
	
		<polyline opacity="0.4" fill="none" stroke="#F60020" stroke-width="2.126" stroke-miterlimit="10" enable-background="new    " points="
		297.612,451.216 271.353,436.07 271.353,405.78 271.353,436.07 297.612,420.926 297.612,390.632 297.612,420.926 297.612,420.926 
		297.612,420.926 323.82,436.07 297.612,420.926 323.82,436.07 323.82,436.07 323.82,436.07 323.82,436.07 323.82,436.07 	"/>
</g>
</svg>
