<?xml version="1.0" encoding="utf-8"?>
<!-- Generator: Adobe Illustrator 16.0.0, SVG Export Plug-In . SVG Version: 6.00 Build 0)  -->
<!DOCTYPE svg PUBLIC "-//W3C//DTD SVG 1.1//EN" "http://www.w3.org/Graphics/SVG/1.1/DTD/svg11.dtd">
<svg version="1.1" id="Layer_1" xmlns="http://www.w3.org/2000/svg" xmlns:xlink="http://www.w3.org/1999/xlink" x="0px" y="0px"
	 width="640px" height="480px" viewBox="0 0 640 480" enable-background="new 0 0 640 480" xml:space="preserve">
<polyline fill="none" stroke="#3953A4" stroke-width="0.3431" stroke-miterlimit="10" points="323.167,200.76 359.66,237.218 
	340.884,255.46 323.167,200.76 283.354,257.664 340.884,255.46 319.704,240.714 296.701,207.865 319.704,240.714 280.906,230.669 
	319.704,240.714 283.354,257.664 319.704,240.714 302.657,277.062 319.704,240.714 330.087,279.455 319.704,240.714 359.66,237.218 
	319.704,240.714 323.167,200.76 319.704,240.714 348.167,212.272 323.167,200.76 296.701,207.865 280.906,230.669 283.354,257.664 
	302.657,277.062 330.087,279.455 359.66,237.218 348.167,212.272 340.884,255.46 330.087,279.455 283.354,257.664 296.701,207.865 
	348.167,212.272 340.884,255.46 302.657,277.062 280.906,230.669 323.167,200.76 "/>
</svg>
