<?xml version="1.0" encoding="utf-8"?>
<!-- Generator: Adobe Illustrator 16.0.0, SVG Export Plug-In . SVG Version: 6.00 Build 0)  -->
<!DOCTYPE svg PUBLIC "-//W3C//DTD SVG 1.1//EN" "http://www.w3.org/Graphics/SVG/1.1/DTD/svg11.dtd">
<svg version="1.1" id="Layer_1" xmlns="http://www.w3.org/2000/svg" xmlns:xlink="http://www.w3.org/1999/xlink" x="0px" y="0px"
	 width="640px" height="480px" viewBox="0 0 640 480" enable-background="new 0 0 640 480" xml:space="preserve">
<path fill="none" stroke="#F912A4" stroke-width="0.3386" stroke-miterlimit="10" d="M325.933,238.38l0.558,1.924l-0.216,2.306
	l-0.32,3.271l-1.741,3.544L323.41,251l-1.686,1.537l-2.481,2.223l-2.25,0.956l-3.026,1.121l-2.621-0.023h-3.04l-2.745-1.038
	l-2.616-1.005l-2.489-2.313l-1.629-1.485l-1.457-2.86l-1.086-2.196l-0.271-2.84l-0.248-2.792l0.849-3.113l0.716-2.399l2.638-3.462
	l0.776-1.027l3.316-2.054l1.501-0.93l5.501-0.977l2.748,0.437l3.005,0.6l2.743,1.709l1.909,1.182l0.895,1.147l1.935,2.562
	l0.597,0.79l0.371,1.222L325.933,238.38z"/>
</svg>
