<?xml version="1.0" encoding="utf-8"?>
<!-- Generator: Adobe Illustrator 16.0.0, SVG Export Plug-In . SVG Version: 6.00 Build 0)  -->
<!DOCTYPE svg PUBLIC "-//W3C//DTD SVG 1.1//EN" "http://www.w3.org/Graphics/SVG/1.1/DTD/svg11.dtd">
<svg version="1.1" id="Layer_1" xmlns="http://www.w3.org/2000/svg" xmlns:xlink="http://www.w3.org/1999/xlink" x="0px" y="0px"
	 width="640px" height="480px" viewBox="0 0 640 480" enable-background="new 0 0 640 480" xml:space="preserve">
<polygon fill="none" stroke="#3953A4" stroke-width="0.4657" stroke-miterlimit="10" points="281.055,265.367 283.495,261.143 
	287.899,253.514 292.241,245.994 296.745,238.193 301.248,230.393 304.194,225.29 305.783,222.538 310.164,214.95 314.636,207.204 
	318.915,199.792 323.54,191.783 327.711,199.006 332.469,207.247 335.105,211.813 336.993,215.083 341.262,222.476 342.866,225.255 
	345.859,230.44 350.402,238.311 354.766,245.866 358.459,252.266 359.386,253.871 363.727,261.387 366.023,265.367 358.5,265.367 
	350.375,265.367 342.75,265.367 335,265.367 327.624,265.367 319.5,265.367 312,265.367 304.25,265.367 296.5,265.367 289,265.367 
	"/>
</svg>
