<?xml version="1.0" encoding="utf-8"?>
<!-- Generator: Adobe Illustrator 16.0.0, SVG Export Plug-In . SVG Version: 6.00 Build 0)  -->
<!DOCTYPE svg PUBLIC "-//W3C//DTD SVG 1.1//EN" "http://www.w3.org/Graphics/SVG/1.1/DTD/svg11.dtd">
<svg version="1.1" id="Layer_5" xmlns="http://www.w3.org/2000/svg" xmlns:xlink="http://www.w3.org/1999/xlink" x="0px" y="0px"
	 width="640px" height="480px" viewBox="0 0 640 480" enable-background="new 0 0 640 480" xml:space="preserve">
<polygon fill="none" stroke="#3953A4" stroke-width="0.2642" stroke-miterlimit="10" points="366.07,191.783 358.5,191.783 
	350.367,191.783 342.875,191.783 335.01,191.783 327.376,191.783 312.125,191.783 304.002,191.783 296.5,191.783 288.625,191.783 
	281.031,191.783 281.031,199.5 281.031,207.25 281.031,214.996 281.031,222.625 281.031,230.381 281.031,245.875 281.031,253.63 
	281.031,261.377 281.031,268.994 281.031,276.822 296.25,276.822 350.25,276.822 358.375,276.822 366.07,276.822 366.07,269.125 
	366.07,261.375 366.07,253.625 366.07,245.875 366.07,238.375 366.07,230.25 366.07,222.5 366.07,214.625 366.07,207.375 
	366.07,199.625 "/>
</svg>
