<?xml version="1.0" encoding="utf-8"?>
<!-- Generator: Adobe Illustrator 19.0.0, SVG Export Plug-In . SVG Version: 6.00 Build 0)  -->
<svg version="1.1" id="Calque_1" xmlns="http://www.w3.org/2000/svg" xmlns:xlink="http://www.w3.org/1999/xlink" x="0px" y="0px"
	 viewBox="0 0 595.3 841.9" style="enable-background:new 0 0 595.3 841.9;" xml:space="preserve">
<style type="text/css">
	.st0{fill:none;stroke:#000000;stroke-width:0.6466;stroke-miterlimit:10;}
	.st1{fill:none;stroke:#000000;stroke-width:0.4527;stroke-miterlimit:10;}
</style>
<polygon id="XMLID_56_" class="st0" points="907.5,803.2 893.3,791.9 896,822.2 903.9,810.3 892.5,840.1 915.2,829.9 894.5,838.5 
	903.5,838.5 869.8,820.3 872.1,838.5 858.5,812.8 862.8,831.1 884.9,806.2 874.5,810.9 906.8,799.3 884.7,793.1 "/>
<polygon id="XMLID_54_" class="st1" points="1293.2,792.3 1291.1,793 1293.8,806.2 1301.7,811.5 1302.4,829.2 1313.1,831.1 
	1309.4,839.6 1301.4,839.6 1279.7,833.6 1269.9,839.6 1256.4,831.1 1260.6,832.2 1270.6,819.4 1272.3,812 1287.5,800.5 
	1282.5,794.3 "/>
<polygon id="XMLID_1_" class="st1" points="306.9,397.3 304.8,398 307.5,411.2 315.5,416.5 316.1,434.2 326.8,436.1 323.1,444.6 
	315.1,444.6 293.5,438.6 283.6,444.6 270.1,436.1 274.4,437.2 284.3,424.4 286,417 301.2,405.5 296.3,399.3 "/>
</svg>
