<?xml version="1.0" encoding="utf-8"?>
<!-- Generator: Adobe Illustrator 16.0.0, SVG Export Plug-In . SVG Version: 6.00 Build 0)  -->
<!DOCTYPE svg PUBLIC "-//W3C//DTD SVG 1.1//EN" "http://www.w3.org/Graphics/SVG/1.1/DTD/svg11.dtd">
<svg version="1.1" id="Layer_1" xmlns="http://www.w3.org/2000/svg" xmlns:xlink="http://www.w3.org/1999/xlink" x="0px" y="0px"
	 width="640px" height="480px" viewBox="0 0 640 480" enable-background="new 0 0 640 480" xml:space="preserve">
<path fill="none" stroke="#3953A4" stroke-width="0.2991" stroke-miterlimit="10" d="M360.751,223.833
	c0,22.506-18.245,40.75-40.751,40.75s-40.75-18.244-40.75-40.75c0-12.096,5.271-22.961,13.64-30.424
	c7.203-6.423,16.701-10.326,27.11-10.326C342.506,183.083,360.751,201.327,360.751,223.833z"/>
<path fill="none" stroke="#3953A4" stroke-width="0.2991" stroke-miterlimit="10" d="M331.935,252.65
	c0,22.506-18.245,40.75-40.751,40.75c-11.021,0-21.02-4.375-28.354-11.482c-7.645-7.407-12.396-17.782-12.396-29.268
	c0-22.507,18.245-40.751,40.75-40.751S331.935,230.144,331.935,252.65z"/>
<path fill="none" stroke="#3953A4" stroke-width="0.2991" stroke-miterlimit="10" d="M389.566,195.018
	c0,22.506-18.244,40.75-40.75,40.75s-40.751-18.244-40.751-40.75c0-22.507,18.245-40.751,40.751-40.751
	c11.166,0,21.283,4.492,28.645,11.766C384.936,173.42,389.566,183.678,389.566,195.018z"/>
<path fill="none" stroke="#3953A4" stroke-width="0.2991" stroke-miterlimit="10" d="M389.668,252.75
	c0,9.082-2.971,17.47-7.993,24.244c-7.425,10.016-19.333,16.507-32.758,16.507c-22.506,0-40.75-18.244-40.75-40.751
	c0-22.506,18.245-40.75,40.75-40.75S389.668,230.244,389.668,252.75z"/>
</svg>
