<?xml version="1.0" encoding="utf-8"?>
<!-- Generator: Adobe Illustrator 19.0.0, SVG Export Plug-In . SVG Version: 6.00 Build 0)  -->
<svg version="1.1" id="Calque_1" xmlns="http://www.w3.org/2000/svg" xmlns:xlink="http://www.w3.org/1999/xlink" x="0px" y="0px"
	 viewBox="0 0 595.3 841.9" style="enable-background:new 0 0 595.3 841.9;" xml:space="preserve">
<style type="text/css">
	.st0{fill:none;stroke:#000000;stroke-width:0.6466;stroke-miterlimit:10;}
</style>
<polygon id="XMLID_56_" class="st0" points="907.5,803.2 893.3,791.9 896,822.2 903.9,810.3 892.5,840.1 915.2,829.9 894.5,838.5 
	903.5,838.5 869.8,820.3 872.1,838.5 858.5,812.8 862.8,831.1 884.9,806.2 874.5,810.9 906.8,799.3 884.7,793.1 "/>
<polygon id="XMLID_1_" class="st0" points="318.5,408.2 304.3,396.9 307,427.2 314.9,415.3 303.5,445.1 326.2,434.9 305.5,443.5 
	314.5,443.5 280.8,425.3 283.1,443.5 269.5,417.8 273.8,436.1 295.9,411.2 285.5,415.9 317.8,404.3 295.7,398.1 "/>
</svg>
