<?xml version="1.0" encoding="utf-8"?>
<!-- Generator: Adobe Illustrator 16.0.0, SVG Export Plug-In . SVG Version: 6.00 Build 0)  -->
<!DOCTYPE svg PUBLIC "-//W3C//DTD SVG 1.1//EN" "http://www.w3.org/Graphics/SVG/1.1/DTD/svg11.dtd">
<svg version="1.1" id="Layer_1" xmlns="http://www.w3.org/2000/svg" xmlns:xlink="http://www.w3.org/1999/xlink" x="0px" y="0px"
	 width="640px" height="480px" viewBox="0 0 640 480" enable-background="new 0 0 640 480" xml:space="preserve">
<polyline fill="none" stroke="#3953A4" stroke-width="0.3431" stroke-miterlimit="10" points="323.167,200.76 333.43,211.01 
	341.43,219.005 346.197,223.949 359.66,237.218 340.884,255.46 335.73,239.472 332.1,228.338 326.289,210.399 323.167,200.76 
	316.98,209.601 307.452,223.217 298.974,235.432 289.466,248.929 283.354,257.664 293.384,257.285 312.249,256.613 323.83,256.109 
	340.884,255.46 319.704,240.714 307.452,223.217 302.145,215.637 296.701,207.865 302.145,215.637 307.452,223.217 319.704,240.714 
	298.974,235.432 289.885,233.117 280.906,230.669 289.885,233.117 319.704,240.714 291.73,253.759 283.354,257.664 291.73,253.759 
	319.704,240.714 312.249,256.613 306.66,268.531 302.657,277.062 306.66,268.531 312.249,256.613 319.704,240.714 323.83,256.109 
	325.92,263.916 330.087,279.455 325.92,263.916 323.83,256.109 319.704,240.714 335.73,239.472 343.684,238.855 359.66,237.218 
	343.684,238.855 335.73,239.472 319.704,240.714 322.355,210.062 323.167,200.76 322.355,210.062 319.704,240.714 341.43,219.005 
	348.167,212.272 323.167,200.76 296.701,207.865 280.906,230.669 283.354,257.664 302.657,277.062 330.087,279.455 359.66,237.218 
	348.167,212.272 346.197,223.949 343.684,238.855 340.884,255.46 330.087,279.455 312.739,271.365 306.66,268.531 296.376,263.668 
	283.354,257.664 287.024,243.721 289.885,233.117 292.819,222.237 296.701,207.865 311.355,209.119 316.98,209.601 322.355,210.062 
	326.289,210.399 333.43,211.01 348.167,212.272 346.197,223.949 343.684,238.855 340.884,255.46 325.92,263.916 312.739,271.365 
	302.657,277.062 296.376,263.668 293.384,257.285 291.73,253.759 289.466,248.929 287.024,243.721 280.906,230.669 292.819,222.237 
	302.145,215.637 311.355,209.119 323.167,200.76 "/>
</svg>
