<?xml version="1.0" encoding="utf-8"?>
<!-- Generator: Adobe Illustrator 16.0.0, SVG Export Plug-In . SVG Version: 6.00 Build 0)  -->
<!DOCTYPE svg PUBLIC "-//W3C//DTD SVG 1.1//EN" "http://www.w3.org/Graphics/SVG/1.1/DTD/svg11.dtd">
<svg version="1.1" id="Layer_1" xmlns="http://www.w3.org/2000/svg" xmlns:xlink="http://www.w3.org/1999/xlink" x="0px" y="0px"
	 width="640px" height="480px" viewBox="0 0 640 480" enable-background="new 0 0 640 480" xml:space="preserve">
<polygon fill="none" stroke="#3953A4" stroke-width="0.3134" stroke-miterlimit="10" points="315.74,281.593 308.244,281.822 
	301.11,281.822 294.569,281.822 284.062,281.822 277.031,281.822 277.031,255.966 277.031,248.721 277.092,241.17 277.092,233.688 
	277.092,226.125 277.031,218.625 277.031,212.25 277.031,205.625 277.031,200.312 277.031,196.783 298.625,196.783 319.55,196.761 
	329.75,196.783 340.438,196.783 347.5,196.761 355.25,196.783 362.07,196.783 362.07,207.562 362.07,222.5 362.07,234.375 
	361.945,239 362.07,248.721 362.07,255.966 362.07,262.677 362.07,268.634 362.07,273.646 362.07,281.822 330.856,281.593 
	323.36,281.593 "/>
</svg>
