<?xml version="1.0" encoding="utf-8"?>
<!-- Generator: Adobe Illustrator 16.0.0, SVG Export Plug-In . SVG Version: 6.00 Build 0)  -->
<!DOCTYPE svg PUBLIC "-//W3C//DTD SVG 1.1//EN" "http://www.w3.org/Graphics/SVG/1.1/DTD/svg11.dtd">
<svg version="1.1" id="Layer_1" xmlns="http://www.w3.org/2000/svg" xmlns:xlink="http://www.w3.org/1999/xlink" x="0px" y="0px"
	 width="1190.551px" height="841.89px" viewBox="0 0 1190.551 841.89" enable-background="new 0 0 1190.551 841.89"
	 xml:space="preserve">
<polygon fill="none" stroke="#000000" stroke-width="0.5966" stroke-miterlimit="10" points="384.018,430.013 380.15,429.504 
	376.381,428.496 372.777,427.001 369.398,425.051 366.302,422.675 363.544,419.917 361.168,416.822 359.218,413.443 
	357.724,409.838 356.715,406.069 356.205,402.201 356.205,398.3 356.715,394.432 357.724,390.663 359.218,387.058 361.168,383.679 
	363.544,380.584 366.302,377.825 369.398,375.45 372.777,373.499 376.381,372.006 380.15,370.996 384.018,370.487 387.92,370.487 
	391.788,370.996 395.557,372.006 399.161,373.499 402.54,375.45 405.635,377.825 408.394,380.584 410.77,383.679 412.72,387.058 
	414.214,390.663 415.223,394.432 415.733,398.3 415.733,402.201 415.223,406.069 414.214,409.838 412.72,413.443 410.77,416.822 
	408.394,419.917 405.635,422.675 402.54,425.051 399.161,427.001 395.557,428.496 391.788,429.504 387.92,430.013 "/>
<polygon fill="none" stroke="#000000" stroke-width="0.5966" stroke-miterlimit="10" points="384.018,430.013 380.15,429.504 
	376.381,428.496 372.777,427.001 369.398,425.051 366.302,422.675 363.544,419.917 361.168,416.822 359.218,413.443 
	357.724,409.838 356.715,406.069 356.205,402.201 356.205,398.3 356.715,394.432 357.724,390.663 359.218,387.058 361.168,383.679 
	363.544,380.584 366.302,377.825 369.398,375.45 372.777,373.499 376.381,372.006 380.15,370.996 384.018,370.487 387.92,370.487 
	391.788,370.996 395.557,372.006 399.161,373.499 402.54,375.45 405.635,377.825 408.394,380.584 410.77,383.679 412.72,387.058 
	414.214,390.663 415.223,394.432 415.733,398.3 415.733,402.201 415.223,406.069 414.214,409.838 412.72,413.443 410.77,416.822 
	408.394,419.917 405.635,422.675 402.54,425.051 399.161,427.001 395.557,428.496 391.788,429.504 387.92,430.013 "/>
</svg>
