<?xml version="1.0" encoding="utf-8"?>
<!-- Generator: Adobe Illustrator 16.0.0, SVG Export Plug-In . SVG Version: 6.00 Build 0)  -->
<!DOCTYPE svg PUBLIC "-//W3C//DTD SVG 1.1//EN" "http://www.w3.org/Graphics/SVG/1.1/DTD/svg11.dtd">
<svg version="1.1" id="Calque_1" xmlns="http://www.w3.org/2000/svg" xmlns:xlink="http://www.w3.org/1999/xlink" x="0px" y="0px"
	 width="841.889px" height="1190.551px" viewBox="0 0 841.889 1190.551" enable-background="new 0 0 841.889 1190.551"
	 xml:space="preserve">
<polygon id="XMLID_56_" fill="none" stroke="#000000" stroke-width="0.6466" stroke-miterlimit="10" points="1283.347,1135.824 
	1263.267,1119.844 1267.085,1162.692 1278.256,1145.864 1262.135,1188.005 1294.236,1173.581 1264.963,1185.742 1277.691,1185.742 
	1230.034,1160.005 1233.287,1185.742 1214.055,1149.399 1220.136,1175.277 1251.388,1140.066 1236.681,1146.713 1282.358,1130.308 
	1251.106,1121.541 "/>
<polygon id="XMLID_1_" fill="none" stroke="#000000" stroke-width="0.6466" stroke-miterlimit="10" points="450.429,577.245 
	430.349,561.265 434.166,604.113 445.338,587.285 429.217,629.427 461.318,615.002 432.045,627.164 444.773,627.164 
	397.116,601.427 400.369,627.164 381.137,590.821 387.218,616.699 418.47,581.487 403.763,588.134 449.439,571.73 418.187,562.963 
	"/>
</svg>
