<?xml version="1.0" encoding="utf-8"?>
<!-- Generator: Adobe Illustrator 16.0.0, SVG Export Plug-In . SVG Version: 6.00 Build 0)  -->
<!DOCTYPE svg PUBLIC "-//W3C//DTD SVG 1.1//EN" "http://www.w3.org/Graphics/SVG/1.1/DTD/svg11.dtd">
<svg version="1.1" id="Layer_1" xmlns="http://www.w3.org/2000/svg" xmlns:xlink="http://www.w3.org/1999/xlink" x="0px" y="0px"
	 width="640px" height="480px" viewBox="0 0 640 480" enable-background="new 0 0 640 480" xml:space="preserve">
<polygon fill="none" stroke="#3953A4" stroke-width="0.3134" stroke-miterlimit="10" points="318.924,276.692 311.427,275.332 
	304.294,272.654 297.752,268.746 292.015,263.733 287.264,257.776 283.653,251.065 281.298,243.82 280.276,236.27 280.618,228.657 
	282.313,221.229 285.308,214.223 289.505,207.863 294.771,202.356 300.935,197.878 307.8,194.572 315.145,192.544 322.733,191.861 
	330.323,192.544 337.668,194.572 344.533,197.878 350.696,202.356 355.962,207.863 360.16,214.223 363.154,221.229 364.85,228.657 
	365.192,236.27 364.169,243.82 361.815,251.065 358.204,257.776 353.453,263.733 347.716,268.746 341.174,272.654 334.04,275.332 
	326.544,276.692 "/>
</svg>
