<?xml version="1.0" encoding="utf-8"?>
<!-- Generator: Adobe Illustrator 16.0.0, SVG Export Plug-In . SVG Version: 6.00 Build 0)  -->
<!DOCTYPE svg PUBLIC "-//W3C//DTD SVG 1.1//EN" "http://www.w3.org/Graphics/SVG/1.1/DTD/svg11.dtd">
<svg version="1.1" xmlns="http://www.w3.org/2000/svg" xmlns:xlink="http://www.w3.org/1999/xlink" x="0px" y="0px" width="640px"
	 height="480px" viewBox="0 0 640 480" enable-background="new 0 0 640 480" xml:space="preserve">
<g id="Layer_1">
</g>
<g id="Layer_5">
	<path fill="none" stroke="#3953A4" stroke-width="0.209" stroke-miterlimit="10" d="M365.741,234.302
		c0,1.213-0.051,2.414-0.15,3.601c-0.231,2.753-0.725,5.432-1.455,8.011c-0.776,2.741-1.82,5.369-3.103,7.854
		c-0.837,1.622-1.774,3.184-2.806,4.676c-0.711,1.028-1.466,2.024-2.262,2.984c-1.659,2.001-3.498,3.847-5.492,5.514
		c-0.933,0.78-1.899,1.521-2.897,2.219c-1.618,1.133-3.318,2.155-5.091,3.058c-2.291,1.166-4.702,2.131-7.209,2.871
		c-2.543,0.75-10.654,1.732-12.056,1.732c-1.307,0-8.862-0.852-11.239-1.501c-2.748-0.751-5.385-1.771-7.881-3.028
		c-2.69-1.357-5.217-2.991-7.542-4.865c-2.208-1.779-4.235-3.775-6.048-5.955c-0.669-0.805-1.309-1.634-1.917-2.486
		c-1.198-1.678-2.278-3.447-3.226-5.295c-1.231-2.398-2.241-4.93-3.002-7.566c-0.747-2.584-1.254-5.27-1.499-8.031
		c-0.11-1.249,0.395-11.722,1.443-15.417c0.735-2.592,1.71-5.083,2.899-7.448c0.977-1.943,4.55-7.182,5.19-7.959
		c1.802-2.185,3.817-4.187,6.015-5.974c0.694-0.564,1.406-1.106,2.135-1.626c1.74-1.242,3.577-2.355,5.498-3.328
		c2.501-1.266,5.144-2.291,7.898-3.046c2.44-0.669,10.024-1.512,11.276-1.512c4.147,0,8.156,0.594,11.946,1.702
		c2.788,0.814,5.457,1.907,7.976,3.245c1.521,0.808,6.329,4.101,7.25,4.867c2.025,1.684,3.892,3.553,5.573,5.581
		c0.91,1.098,1.767,2.242,2.564,3.428c0.926,1.376,1.773,2.811,2.536,4.295c1.251,2.434,2.273,5.005,3.04,7.684
		c0.727,2.541,1.223,5.178,1.465,7.889C365.684,231.734,365.741,233.012,365.741,234.302z"/>
</g>
<g id="Layer_4">
</g>
<g id="Layer_3" display="none">
	<g display="inline">
		
			<line fill="none" stroke="#FF01A4" stroke-width="0.2691" stroke-miterlimit="10" x1="274" y1="191.783" x2="373.25" y2="191.783"/>
		
			<line fill="none" stroke="#FF01A4" stroke-width="0.2691" stroke-miterlimit="10" x1="274" y1="199.513" x2="373.25" y2="199.513"/>
		
			<line fill="none" stroke="#FF01A4" stroke-width="0.2691" stroke-miterlimit="10" x1="274" y1="207.245" x2="373.25" y2="207.245"/>
		
			<line fill="none" stroke="#FF01A4" stroke-width="0.2691" stroke-miterlimit="10" x1="274" y1="214.975" x2="373.25" y2="214.975"/>
		
			<line fill="none" stroke="#FF01A4" stroke-width="0.2691" stroke-miterlimit="10" x1="274" y1="222.706" x2="373.25" y2="222.706"/>
		
			<line fill="none" stroke="#FF01A4" stroke-width="0.2691" stroke-miterlimit="10" x1="274" y1="230.437" x2="373.25" y2="230.437"/>
		
			<line fill="none" stroke="#FF01A4" stroke-width="0.2691" stroke-miterlimit="10" x1="274" y1="238.168" x2="373.25" y2="238.168"/>
		
			<line fill="none" stroke="#FF01A4" stroke-width="0.2691" stroke-miterlimit="10" x1="274" y1="245.898" x2="373.25" y2="245.898"/>
		
			<line fill="none" stroke="#FF01A4" stroke-width="0.2691" stroke-miterlimit="10" x1="274" y1="253.629" x2="373.25" y2="253.629"/>
		<line fill="none" stroke="#FF01A4" stroke-width="0.2691" stroke-miterlimit="10" x1="274" y1="261.36" x2="373.25" y2="261.36"/>
		
			<line fill="none" stroke="#FF01A4" stroke-width="0.2691" stroke-miterlimit="10" x1="274" y1="269.091" x2="373.25" y2="269.091"/>
		
			<line fill="none" stroke="#FF01A4" stroke-width="0.2691" stroke-miterlimit="10" x1="274" y1="276.822" x2="373.25" y2="276.822"/>
	</g>
	<g display="inline">
		
			<line fill="none" stroke="#FF01A4" stroke-width="0.2691" stroke-miterlimit="10" x1="281.031" y1="182.75" x2="281.031" y2="283.25"/>
		
			<line fill="none" stroke="#FF01A4" stroke-width="0.2691" stroke-miterlimit="10" x1="288.761" y1="182.75" x2="288.761" y2="283.25"/>
		
			<line fill="none" stroke="#FF01A4" stroke-width="0.2691" stroke-miterlimit="10" x1="296.493" y1="182.75" x2="296.493" y2="283.25"/>
		
			<line fill="none" stroke="#FF01A4" stroke-width="0.2691" stroke-miterlimit="10" x1="304.223" y1="182.75" x2="304.223" y2="283.25"/>
		
			<line fill="none" stroke="#FF01A4" stroke-width="0.2691" stroke-miterlimit="10" x1="311.954" y1="182.75" x2="311.954" y2="283.25"/>
		
			<line fill="none" stroke="#FF01A4" stroke-width="0.2691" stroke-miterlimit="10" x1="319.686" y1="182.75" x2="319.686" y2="283.25"/>
		
			<line fill="none" stroke="#FF01A4" stroke-width="0.2691" stroke-miterlimit="10" x1="327.416" y1="182.75" x2="327.416" y2="283.25"/>
		
			<line fill="none" stroke="#FF01A4" stroke-width="0.2691" stroke-miterlimit="10" x1="335.146" y1="182.75" x2="335.146" y2="283.25"/>
		
			<line fill="none" stroke="#FF01A4" stroke-width="0.2691" stroke-miterlimit="10" x1="342.878" y1="182.75" x2="342.878" y2="283.25"/>
		
			<line fill="none" stroke="#FF01A4" stroke-width="0.2691" stroke-miterlimit="10" x1="350.608" y1="182.75" x2="350.608" y2="283.25"/>
		
			<line fill="none" stroke="#FF01A4" stroke-width="0.2691" stroke-miterlimit="10" x1="358.34" y1="182.75" x2="358.34" y2="283.25"/>
		
			<line fill="none" stroke="#FF01A4" stroke-width="0.2691" stroke-miterlimit="10" x1="366.07" y1="182.75" x2="366.07" y2="283.25"/>
	</g>
</g>
</svg>
