<?xml version="1.0" encoding="utf-8"?>
<!-- Generator: Adobe Illustrator 16.0.0, SVG Export Plug-In . SVG Version: 6.00 Build 0)  -->
<!DOCTYPE svg PUBLIC "-//W3C//DTD SVG 1.1//EN" "http://www.w3.org/Graphics/SVG/1.1/DTD/svg11.dtd">
<svg version="1.1" id="Layer_1" xmlns="http://www.w3.org/2000/svg" xmlns:xlink="http://www.w3.org/1999/xlink" x="0px" y="0px"
	 width="640px" height="480px" viewBox="0 0 640 480" enable-background="new 0 0 640 480" xml:space="preserve">
<circle fill="none" stroke="#3953A4" stroke-width="0.2991" stroke-miterlimit="10" cx="291.184" cy="252.65" r="40.751"/>
<circle fill="none" stroke="#3953A4" stroke-width="0.2991" stroke-miterlimit="10" cx="348.816" cy="195.018" r="40.75"/>
<path fill="none" stroke="#3953A4" stroke-width="0.2991" stroke-miterlimit="10" d="M348.917,211.999
	c11.201,0,21.347,4.519,28.712,11.833c7.436,7.382,12.039,17.613,12.039,28.917c0,22.506-18.244,40.751-40.751,40.751
	c-11.253,0-21.44-4.562-28.815-11.936c-7.375-7.374-11.936-17.562-11.936-28.815C308.166,230.244,326.41,211.999,348.917,211.999z"
	/>
<path fill="none" stroke="#3953A4" stroke-width="0.2991" stroke-miterlimit="10" d="M291.285,154.367
	c11.204,0,21.351,4.521,28.718,11.838c7.432,7.382,12.033,17.61,12.033,28.913c0,22.506-18.245,40.751-40.751,40.751
	c-11.253,0-21.441-4.562-28.815-11.936s-11.936-17.562-11.936-28.815C250.534,172.612,268.779,154.367,291.285,154.367z"/>
</svg>
