<?xml version="1.0" encoding="utf-8"?>
<!-- Generator: Adobe Illustrator 16.0.0, SVG Export Plug-In . SVG Version: 6.00 Build 0)  -->
<!DOCTYPE svg PUBLIC "-//W3C//DTD SVG 1.1//EN" "http://www.w3.org/Graphics/SVG/1.1/DTD/svg11.dtd">
<svg version="1.1" id="Layer_1" xmlns="http://www.w3.org/2000/svg" xmlns:xlink="http://www.w3.org/1999/xlink" x="0px" y="0px"
	 width="640px" height="480px" viewBox="0 0 640 480" enable-background="new 0 0 640 480" xml:space="preserve">
<polyline fill="none" stroke="#3953A4" stroke-width="0.3431" stroke-miterlimit="10" points="283.371,254.618 359.676,234.172 
	340.9,252.415 283.371,254.618 283.371,254.618 340.9,252.415 340.9,252.415 296.716,204.82 319.72,237.669 280.921,227.624 
	319.72,237.669 283.371,254.618 319.72,237.669 319.72,237.669 319.72,237.669 330.104,276.41 319.72,237.669 359.676,234.172 
	319.72,237.669 283.371,254.618 319.72,237.669 319.425,237.708 283.371,254.618 296.716,204.82 280.921,227.624 283.371,254.618 
	319.72,237.669 330.104,276.41 359.676,234.172 319.425,237.708 340.9,252.415 330.104,276.41 283.371,254.618 296.716,204.82 
	319.425,237.708 340.9,252.415 319.72,237.669 280.921,227.624 283.371,254.618 "/>
</svg>
