<?xml version="1.0" encoding="utf-8"?>
<!-- Generator: Adobe Illustrator 16.0.0, SVG Export Plug-In . SVG Version: 6.00 Build 0)  -->
<!DOCTYPE svg PUBLIC "-//W3C//DTD SVG 1.1//EN" "http://www.w3.org/Graphics/SVG/1.1/DTD/svg11.dtd">
<svg version="1.1" id="Layer_1" xmlns="http://www.w3.org/2000/svg" xmlns:xlink="http://www.w3.org/1999/xlink" x="0px" y="0px"
	 width="640px" height="480px" viewBox="0 0 640 480" enable-background="new 0 0 640 480" xml:space="preserve">
<polyline fill="none" stroke="#3953A4" stroke-width="0.3431" stroke-miterlimit="10" points="325.758,237.042 289.408,253.992 
	346.938,251.789 325.758,237.042 325.758,237.042 346.938,251.789 325.758,237.042 302.754,204.193 325.758,237.042 
	325.758,237.042 325.758,237.042 289.408,253.992 325.758,237.042 308.711,273.391 325.758,237.042 336.141,275.783 
	325.758,237.042 325.758,237.042 325.758,237.042 325.758,237.042 325.758,237.042 354.221,208.599 325.758,237.042 
	302.754,204.193 286.96,226.998 289.408,253.992 308.711,273.391 336.141,275.783 325.758,237.042 354.221,208.599 346.938,251.789 
	336.141,275.783 289.408,253.992 302.754,204.193 354.221,208.599 346.938,251.789 308.711,273.391 286.96,226.998 325.758,237.042 
	"/>
</svg>
