<?xml version="1.0" encoding="utf-8"?>
<!-- Generator: Adobe Illustrator 16.0.0, SVG Export Plug-In . SVG Version: 6.00 Build 0)  -->
<!DOCTYPE svg PUBLIC "-//W3C//DTD SVG 1.1//EN" "http://www.w3.org/Graphics/SVG/1.1/DTD/svg11.dtd">
<svg version="1.1" id="Layer_1" xmlns="http://www.w3.org/2000/svg" xmlns:xlink="http://www.w3.org/1999/xlink" x="0px" y="0px"
	 width="640px" height="480px" viewBox="0 0 640 480" enable-background="new 0 0 640 480" xml:space="preserve">
<path fill="none" stroke="#3953A4" stroke-width="0.209" stroke-miterlimit="10" d="M365.742,234.307
	c0,2.53-0.222,5.008-0.646,7.416c-0.745,4.229-2.117,8.243-4.016,11.941c-1.186,2.309-2.576,4.495-4.146,6.533
	c-0.934,1.211-1.931,2.369-2.986,3.472c-2.223,2.319-4.706,4.388-7.403,6.156c-2.636,1.729-5.476,3.171-8.475,4.284
	c-2.3,0.854-4.694,1.516-7.163,1.963c-2.47,0.446-5.014,0.68-7.611,0.68c-0.685,0-1.365-0.016-2.043-0.048
	c-5.215-0.247-10.184-1.436-14.741-3.399c-2.182-0.939-4.269-2.058-6.244-3.335c-1.237-0.8-2.43-1.663-3.574-2.585
	c-2.146-1.729-4.122-3.662-5.895-5.77c-1.067-1.27-2.062-2.602-2.978-3.991c-0.989-1.503-1.886-3.073-2.682-4.7
	c-1.599-3.27-2.789-6.775-3.505-10.45c-0.516-2.643-0.785-5.374-0.785-8.167c0-2.018,0.141-4.003,0.413-5.946
	c0.272-1.943,0.677-3.844,1.203-5.693c0.802-2.818,1.888-5.517,3.226-8.063c0.907-1.729,1.931-3.387,3.06-4.964
	c0.949-1.327,1.974-2.598,3.066-3.806c0.712-0.787,1.454-1.548,2.224-2.28c1.593-1.517,3.304-2.911,5.118-4.167
	c1.814-1.257,3.73-2.375,5.734-3.341c1.879-0.906,3.835-1.676,5.856-2.301c3.965-1.225,8.179-1.885,12.546-1.885
	c2.527,0,5.004,0.221,7.41,0.644c3.002,0.529,5.895,1.373,8.643,2.496c2.686,1.098,5.232,2.463,7.609,4.062
	c3.36,2.26,6.379,4.987,8.964,8.09c1.808,2.168,3.402,4.52,4.753,7.023s2.457,5.157,3.287,7.93c0.522,1.743,0.937,3.534,1.232,5.363
	C365.555,229.694,365.742,231.979,365.742,234.307z"/>
</svg>
