<?xml version="1.0" encoding="utf-8"?>
<!-- Generator: Adobe Illustrator 16.0.0, SVG Export Plug-In . SVG Version: 6.00 Build 0)  -->
<!DOCTYPE svg PUBLIC "-//W3C//DTD SVG 1.1//EN" "http://www.w3.org/Graphics/SVG/1.1/DTD/svg11.dtd">
<svg version="1.1" id="Layer_1" xmlns="http://www.w3.org/2000/svg" xmlns:xlink="http://www.w3.org/1999/xlink" x="0px" y="0px"
	 width="640px" height="480px" viewBox="0 0 640 480" enable-background="new 0 0 640 480" xml:space="preserve">
<polyline fill="none" stroke="#3953A4" stroke-width="0.3431" stroke-miterlimit="10" points="323.275,200.419 359.77,236.878 
	340.992,255.121 323.275,200.419 283.462,257.324 340.992,255.121 312.382,256.217 296.808,207.525 319.812,240.375 307.56,222.878 
	319.812,240.375 283.462,257.324 319.812,240.375 312.382,256.217 319.812,240.375 330.195,279.115 319.812,240.375 359.77,236.878 
	319.812,240.375 323.275,200.419 319.812,240.375 312.382,256.217 323.275,200.419 296.808,207.525 281.013,230.33 283.462,257.324 
	312.382,256.217 330.195,279.115 359.77,236.878 312.382,256.217 340.992,255.121 330.195,279.115 283.462,257.324 296.808,207.525 
	312.382,256.217 340.992,255.121 312.382,256.217 281.013,230.33 323.275,200.419 "/>
</svg>
