<?xml version="1.0" encoding="utf-8"?>
<!-- Generator: Adobe Illustrator 16.0.0, SVG Export Plug-In . SVG Version: 6.00 Build 0)  -->
<!DOCTYPE svg PUBLIC "-//W3C//DTD SVG 1.1//EN" "http://www.w3.org/Graphics/SVG/1.1/DTD/svg11.dtd">
<svg version="1.1" id="Layer_1" xmlns="http://www.w3.org/2000/svg" xmlns:xlink="http://www.w3.org/1999/xlink" x="0px" y="0px"
	 width="640px" height="480px" viewBox="0 0 640 480" enable-background="new 0 0 640 480" xml:space="preserve">
<polygon fill="none" stroke="#3953A4" stroke-width="0.3134" stroke-miterlimit="10" points="314.74,282.593 307.244,281.232 
	300.11,278.555 293.569,274.646 287.831,269.634 283.081,263.677 279.469,256.966 277.115,249.721 276.092,242.17 276.434,234.557 
	278.13,227.129 281.124,220.123 285.322,213.763 290.587,208.256 296.751,203.778 303.616,200.472 310.961,198.444 318.55,197.761 
	326.14,198.444 333.484,200.472 340.35,203.778 346.513,208.256 351.778,213.763 355.977,220.123 358.971,227.129 360.666,234.557 
	361.009,242.17 359.985,249.721 357.632,256.966 354.021,263.677 349.27,269.634 343.532,274.646 336.99,278.555 329.856,281.232 
	322.36,282.593 "/>
</svg>
