<?xml version="1.0" encoding="utf-8"?>
<!-- Generator: Adobe Illustrator 16.0.0, SVG Export Plug-In . SVG Version: 6.00 Build 0)  -->
<!DOCTYPE svg PUBLIC "-//W3C//DTD SVG 1.1//EN" "http://www.w3.org/Graphics/SVG/1.1/DTD/svg11.dtd">
<svg version="1.1" id="Layer_1" xmlns="http://www.w3.org/2000/svg" xmlns:xlink="http://www.w3.org/1999/xlink" x="0px" y="0px"
	 width="640px" height="480px" viewBox="0 0 640 480" enable-background="new 0 0 640 480" xml:space="preserve">
<polyline fill="none" stroke="#3953A4" stroke-width="0.3431" stroke-miterlimit="10" points="341.291,255.46 341.291,255.46 
	341.291,255.46 341.291,255.46 341.291,255.46 341.291,255.46 341.291,255.46 341.291,255.46 341.291,255.46 341.291,255.46 
	341.291,255.46 341.291,255.46 341.291,255.46 341.291,255.46 283.761,257.664 341.291,255.46 341.291,255.46 341.291,255.46 
	341.291,255.46 341.291,255.46 341.291,255.46 341.291,255.46 341.291,255.46 341.291,255.46 341.291,255.46 341.291,255.46 
	341.291,255.46 341.291,255.46 341.291,255.46 341.291,255.46 341.291,255.46 341.291,255.46 283.761,257.664 341.291,255.46 
	341.291,255.46 341.291,255.46 341.291,255.46 341.291,255.46 341.291,255.46 341.291,255.46 341.291,255.46 341.291,255.46 
	341.291,255.46 330.494,279.455 341.291,255.46 341.291,255.46 341.291,255.46 341.291,255.46 341.291,255.46 341.291,255.46 
	341.291,255.46 341.291,255.46 341.291,255.46 341.291,255.46 341.291,255.46 341.291,255.46 341.291,255.46 341.291,255.46 
	348.574,212.272 323.574,200.76 297.108,207.865 281.313,230.669 283.761,257.664 303.064,277.062 330.494,279.455 360.067,237.218 
	348.574,212.272 341.291,255.46 341.291,255.46 341.291,255.46 330.494,279.455 341.291,255.46 341.291,255.46 341.291,255.46 
	283.761,257.664 341.291,255.46 341.291,255.46 341.291,255.46 297.108,207.865 341.291,255.46 341.291,255.46 341.291,255.46 
	341.291,255.46 341.291,255.46 348.574,212.272 341.291,255.46 341.291,255.46 341.291,255.46 341.291,255.46 341.291,255.46 
	303.064,277.062 341.291,255.46 341.291,255.46 341.291,255.46 341.291,255.46 341.291,255.46 281.313,230.669 341.291,255.46 
	341.291,255.46 341.291,255.46 323.574,200.76 "/>
</svg>
