<?xml version="1.0" encoding="utf-8"?>
<!-- Generator: Adobe Illustrator 16.0.0, SVG Export Plug-In . SVG Version: 6.00 Build 0)  -->
<!DOCTYPE svg PUBLIC "-//W3C//DTD SVG 1.1//EN" "http://www.w3.org/Graphics/SVG/1.1/DTD/svg11.dtd">
<svg version="1.1" id="Layer_1" xmlns="http://www.w3.org/2000/svg" xmlns:xlink="http://www.w3.org/1999/xlink" x="0px" y="0px"
	 width="640px" height="480px" viewBox="0 0 640 480" enable-background="new 0 0 640 480" xml:space="preserve">
<path fill="none" stroke="#000000" stroke-miterlimit="10" d="M319.811,274.545c-4.958,0-9.668-1.061-13.916-2.968
	c-2.344-1.052-4.547-2.362-6.573-3.894c-3.605-2.726-6.65-6.151-8.934-10.075c-1.116-1.919-2.051-3.957-2.778-6.091
	c-1.176-3.447-1.814-7.143-1.814-10.988h15.873h34.999h8.833h8.326c0-3.266-0.461-6.425-1.32-9.415
	c-0.672-2.337-1.588-4.572-2.718-6.674c-1.414-2.629-3.163-5.05-5.191-7.206c-2.002-2.129-4.275-4-6.765-5.559
	c-2.137-1.338-4.434-2.445-6.854-3.286c-3.498-1.215-7.256-1.876-11.168-1.876v8.653v9V234.5v14.833v9v10.834V274.545z"/>
</svg>
