<?xml version="1.0" encoding="utf-8"?>
<!-- Generator: Adobe Illustrator 16.0.0, SVG Export Plug-In . SVG Version: 6.00 Build 0)  -->
<!DOCTYPE svg PUBLIC "-//W3C//DTD SVG 1.1//EN" "http://www.w3.org/Graphics/SVG/1.1/DTD/svg11.dtd">
<svg version="1.1" id="Layer_1" xmlns="http://www.w3.org/2000/svg" xmlns:xlink="http://www.w3.org/1999/xlink" x="0px" y="0px"
	 width="640px" height="480px" viewBox="0 0 640 480" enable-background="new 0 0 640 480" xml:space="preserve">
<path fill="none" stroke="#000000" stroke-miterlimit="10" d="M347.021,260.24c1.054-1.356,1.399-3.195,1.417-4.975
	c0.03-3.04-0.899-5.908-0.899-5.908s1.49-1.194,2.983-2.93c1.492-1.736,2.987-4.014,2.995-6.181s-1.486-4.444-2.983-6.18
	c-1.496-1.735-2.995-2.931-2.995-2.931s1.351-2.066,1.463-4.887c0.072-1.805-0.362-3.918-1.98-5.996c0,0-6.29,4.326-12.827,8.406
	c-5.9,3.684-12.001,7.166-13.858,7.087c-2.032-0.086-9.667-4.165-16.544-8.071c-6.379-3.622-12.106-7.096-12.106-7.096
	c-1.576,1.977-2.214,3.727-2.339,5.205c-0.287,3.389,2.12,5.352,2.12,5.352c0,0-5.297,4.61-5.979,9.11s5.979,9.11,5.979,9.11
	c0,0-0.5,2.908-0.453,5.897c0.029,1.856,0.27,3.743,0.97,4.985c0.013,0.023,5.545-3.706,11.708-7.53
	c6.433-3.991,13.554-8.087,15.809-8.129c2.082-0.039,8.323,3.442,14.337,7.132C340.57,255.847,347.021,260.24,347.021,260.24z"/>
</svg>
