<?xml version="1.0" encoding="utf-8"?>
<!-- Generator: Adobe Illustrator 16.0.0, SVG Export Plug-In . SVG Version: 6.00 Build 0)  -->
<!DOCTYPE svg PUBLIC "-//W3C//DTD SVG 1.1//EN" "http://www.w3.org/Graphics/SVG/1.1/DTD/svg11.dtd">
<svg version="1.1" id="Layer_1" xmlns="http://www.w3.org/2000/svg" xmlns:xlink="http://www.w3.org/1999/xlink" x="0px" y="0px"
	 width="640px" height="480px" viewBox="0 0 640 480" enable-background="new 0 0 640 480" xml:space="preserve">
<path fill="none" stroke="#000000" stroke-miterlimit="10" d="M315.224,260.125c-3.314,0-6.474-0.658-9.357-1.851
	c-2.693-1.114-5.144-2.693-7.251-4.639c-4.852-4.477-7.891-10.889-7.892-18.011h11.9H327.5h12.222
	c0,6.565-2.583,12.527-6.787,16.926C328.474,257.218,322.188,260.125,315.224,260.125l0.013,9.516c4.502,0,8.8-0.875,12.733-2.464
	c4.026-1.627,7.67-4.002,10.76-6.952c3.629-3.468,6.492-7.73,8.31-12.508c1.43-3.757,2.213-7.833,2.213-12.092h-9.531
	c0-3.513-0.74-6.854-2.072-9.875c-1.233-2.796-2.974-5.318-5.104-7.45c-2.31-2.31-5.078-4.161-8.157-5.404
	c-2.831-1.143-5.924-1.771-9.164-1.771v13.125v23.5V260.125"/>
</svg>
