<?xml version="1.0" encoding="utf-8"?>
<!-- Generator: Adobe Illustrator 16.0.0, SVG Export Plug-In . SVG Version: 6.00 Build 0)  -->
<!DOCTYPE svg PUBLIC "-//W3C//DTD SVG 1.1//EN" "http://www.w3.org/Graphics/SVG/1.1/DTD/svg11.dtd">
<svg version="1.1" id="Layer_1" xmlns="http://www.w3.org/2000/svg" xmlns:xlink="http://www.w3.org/1999/xlink" x="0px" y="0px"
	 width="640px" height="480px" viewBox="0 0 640 480" enable-background="new 0 0 640 480" xml:space="preserve">
<path fill="none" stroke="#000000" stroke-miterlimit="10" d="M320.243,273.641c-8.819,0-16.855-3.356-22.899-8.862
	c-6.83-6.222-11.116-15.188-11.116-25.153c0-9.968,4.287-18.934,11.119-25.156c6.044-5.504,14.079-8.86,22.896-8.86V217
	c-6.561,0-12.471,2.793-16.604,7.255c-3.737,4.036-6.021,9.437-6.021,15.37c0,8.081,4.237,15.173,10.61,19.174
	c3.481,2.187,7.601,3.451,12.015,3.451v-7.375V227v-10c6.473,0,12.312,2.719,16.436,7.077c3.837,4.054,6.189,9.526,6.188,15.548
	c0,5.646-2.067,10.809-5.486,14.772c-4.149,4.809-10.289,7.853-17.138,7.853V273.641c10.154,0,19.269-4.45,25.501-11.506
	c5.298-5.997,8.514-13.878,8.514-22.51c0-9.203-3.654-17.552-9.592-23.675c-6.182-6.377-14.84-10.34-24.423-10.34"/>
</svg>
