<?xml version="1.0" encoding="utf-8"?>
<!-- Generator: Adobe Illustrator 16.0.0, SVG Export Plug-In . SVG Version: 6.00 Build 0)  -->
<!DOCTYPE svg PUBLIC "-//W3C//DTD SVG 1.1//EN" "http://www.w3.org/Graphics/SVG/1.1/DTD/svg11.dtd">
<svg version="1.1" id="Layer_1" xmlns="http://www.w3.org/2000/svg" xmlns:xlink="http://www.w3.org/1999/xlink" x="0px" y="0px"
	 width="640px" height="480px" viewBox="0 0 640 480" enable-background="new 0 0 640 480" xml:space="preserve">
<path fill="none" stroke="#000000" stroke-miterlimit="10" d="M299.4,267.791c1.356,1.054,3.195,1.399,4.975,1.417
	c3.04,0.03,5.908-0.899,5.908-0.899s1.194,1.49,2.93,2.983c1.736,1.492,4.014,2.987,6.181,2.995s4.444-1.486,6.18-2.983
	c1.735-1.496,2.931-2.995,2.931-2.995s2.066,1.351,4.887,1.463c1.805,0.072,3.918-0.362,5.996-1.98c0,0-4.326-6.29-8.406-12.827
	c-3.684-5.9-7.166-12.001-7.087-13.858c0.086-2.032,4.165-9.667,8.071-16.544c3.622-6.38,7.096-12.107,7.096-12.107
	c-1.977-1.575-3.727-2.214-5.205-2.339c-3.389-0.287-5.352,2.12-5.352,2.12s-4.61-5.297-9.11-5.979s-9.11,5.979-9.11,5.979
	s-2.908-0.5-5.897-0.453c-1.856,0.029-3.743,0.27-4.985,0.971c-0.023,0.013,3.706,5.545,7.53,11.708
	c3.991,6.433,8.087,13.554,8.129,15.809c0.039,2.082-3.442,8.323-7.132,14.337C303.794,261.341,299.4,267.791,299.4,267.791z"/>
</svg>
