<?xml version="1.0" encoding="utf-8"?>
<!-- Generator: Adobe Illustrator 16.0.0, SVG Export Plug-In . SVG Version: 6.00 Build 0)  -->
<!DOCTYPE svg PUBLIC "-//W3C//DTD SVG 1.1//EN" "http://www.w3.org/Graphics/SVG/1.1/DTD/svg11.dtd">
<svg version="1.1" id="Layer_1" xmlns="http://www.w3.org/2000/svg" xmlns:xlink="http://www.w3.org/1999/xlink" x="0px" y="0px"
	 width="640px" height="480px" viewBox="0 0 640 480" enable-background="new 0 0 640 480" xml:space="preserve">
<path fill="none" stroke="#000000" stroke-width="1.1978" stroke-miterlimit="10" d="M315.985,264.1"/>
<path fill="none" stroke="#000000" stroke-width="1.1978" stroke-miterlimit="10" d="M296.174,255.49
	c-2.324-2.49-4.186-5.418-5.445-8.647c-1.19-3.052-1.844-6.371-1.844-9.844h54.2c0-3.66-0.726-7.15-2.041-10.335
	c-1.376-3.332-3.397-6.33-5.907-8.838l-44.027,42.56c3.199,3.379,7.086,6.102,11.434,7.945c4.077,1.729,8.561,2.685,13.268,2.685
	l0.175-61.117c3.496,0,6.838,0.663,9.907,1.868c3.494,1.373,6.634,3.451,9.244,6.06l4.883-4.719
	c2.818,2.974,5.221,6.575,6.942,10.536c1.808,4.16,2.864,8.715,2.864,13.356l-6.741-0.001c0,3.586-0.696,7.01-1.962,10.143
	c-1.266,3.134-3.099,5.977-5.373,8.4l-1.985-1.958l-37.631-35.033c-2.07,2.227-3.771,4.803-5.003,7.63
	c-1.445,3.313-2.246,6.972-2.246,10.817"/>
</svg>
