<?xml version="1.0" encoding="utf-8"?>
<!-- Generator: Adobe Illustrator 16.0.0, SVG Export Plug-In . SVG Version: 6.00 Build 0)  -->
<!DOCTYPE svg PUBLIC "-//W3C//DTD SVG 1.1//EN" "http://www.w3.org/Graphics/SVG/1.1/DTD/svg11.dtd">
<svg version="1.1" id="Layer_1" xmlns="http://www.w3.org/2000/svg" xmlns:xlink="http://www.w3.org/1999/xlink" x="0px" y="0px"
	 width="640px" height="480px" viewBox="0 0 640 480" enable-background="new 0 0 640 480" xml:space="preserve">
<path fill="none" stroke="#000000" stroke-miterlimit="10" d="M353.765,240.353c0,18.786-15.23,34.016-34.016,34.016v-9.618
	c-4.351,0.551-11.866,4.909-16.456,3.033c-4.859-1.985-4.859-13.745-6.94-17.107c-2.081-3.363-8.489-6.299-8.651-10.89
	c-0.163-4.592,8.773-10.224,10.12-12.427c1.347-2.203-0.074-13.134,6.328-15.075c6.403-1.941,13.247,3.722,15.573,3.967
	l0.025,11.769c6.812,0,12.334,5.522,12.334,12.333s-5.521,12.333-12.334,12.333l0.001,12.064c4.331-0.123,11.492,5.822,15.588,3.527
	s6.295-13.412,7.167-17.029c0.872-3.619,9.671-4.547,9.282-10.473c-0.39-5.926-11.118-10.111-10.862-13.405
	c0.257-3.294-0.011-11.886-4.731-14.593c-4.72-2.707-14.145,3.718-16.47,3.473l0.026-9.913c-18.785,0-34.016,15.23-34.016,34.016
	c0,18.786,15.23,34.016,34.016,34.016"/>
</svg>
