<?xml version="1.0" encoding="utf-8"?>
<!-- Generator: Adobe Illustrator 16.0.0, SVG Export Plug-In . SVG Version: 6.00 Build 0)  -->
<!DOCTYPE svg PUBLIC "-//W3C//DTD SVG 1.1//EN" "http://www.w3.org/Graphics/SVG/1.1/DTD/svg11.dtd">
<svg version="1.1" id="Layer_1" xmlns="http://www.w3.org/2000/svg" xmlns:xlink="http://www.w3.org/1999/xlink" x="0px" y="0px"
	 width="640px" height="480px" viewBox="0 0 640 480" enable-background="new 0 0 640 480" xml:space="preserve">
<path fill="none" stroke="#F912A4" stroke-width="0.5" stroke-miterlimit="10" d="M340.317,229.579l0.822,2.842l-0.318,3.405
	l-0.473,4.83l-2.573,5.234l-1.185,2.327l-2.488,2.269l-3.664,3.283l-3.323,1.412l-4.468,1.656l-3.871-0.035h-4.49l-4.053-1.532
	l-3.863-1.485l-3.675-3.417l-2.407-2.193l-2.151-4.224l-1.604-3.244l-0.4-4.194l-0.366-4.122l1.254-4.597l1.058-3.543l3.895-5.113
	l1.146-1.517l4.898-3.033l2.217-1.373l8.125-1.443l4.058,0.645l4.438,0.887l4.051,2.523l2.819,1.746l1.321,1.694l2.857,3.783
	l0.881,1.167l0.548,1.804L340.317,229.579z"/>
</svg>
