<?xml version="1.0" encoding="utf-8"?>
<!-- Generator: Adobe Illustrator 16.0.0, SVG Export Plug-In . SVG Version: 6.00 Build 0)  -->
<!DOCTYPE svg PUBLIC "-//W3C//DTD SVG 1.1//EN" "http://www.w3.org/Graphics/SVG/1.1/DTD/svg11.dtd">
<svg version="1.1" id="Layer_1" xmlns="http://www.w3.org/2000/svg" xmlns:xlink="http://www.w3.org/1999/xlink" x="0px" y="0px"
	 width="640px" height="480px" viewBox="0 0 640 480" enable-background="new 0 0 640 480" xml:space="preserve">
<path fill="none" stroke="#000000" stroke-miterlimit="10" d="M349.971,257.75c-3.084,5.487-7.462,9.866-12.789,12.773
	c-4.739,2.585-10.229,4.006-16.228,4.006v-8.724c-4.671,0-9.045-1.266-12.8-3.474c-3.59-2.11-6.613-5.082-8.785-8.63l-7.531,4.37
	c-3.171-5.169-4.899-11.051-4.899-17.559c0-5.917,1.512-11.482,4.169-16.329l7.624,4.242c2.052-3.764,5.032-6.949,8.633-9.247
	c3.925-2.506,8.588-3.958,13.59-3.958c4.854,0,9.392,1.369,13.243,3.741c3.863,2.379,7.039,5.768,9.158,9.799l7.625-4.246
	c-2.844-5.326-7.064-9.808-12.186-12.969c-5.188-3.201-11.299-5.049-17.841-5.049v36.252v23.056c4.362,0,8.467-1.104,12.049-3.05
	c4.084-2.217,7.489-5.525,9.823-9.535l7.802,3.934"/>
</svg>
