<?xml version="1.0" encoding="utf-8"?>
<!-- Generator: Adobe Illustrator 16.0.0, SVG Export Plug-In . SVG Version: 6.00 Build 0)  -->
<!DOCTYPE svg PUBLIC "-//W3C//DTD SVG 1.1//EN" "http://www.w3.org/Graphics/SVG/1.1/DTD/svg11.dtd">
<svg version="1.1" xmlns="http://www.w3.org/2000/svg" xmlns:xlink="http://www.w3.org/1999/xlink" x="0px" y="0px" width="640px"
	 height="480px" viewBox="0 0 640 480" enable-background="new 0 0 640 480" xml:space="preserve">
<g id="Layer_4">
	<polygon fill="none" stroke="#3953A4" stroke-width="0.3134" stroke-miterlimit="10" points="319.74,276.593 312.244,275.232 
		305.11,272.555 298.569,268.646 292.831,263.634 288.081,257.677 284.469,250.966 282.115,243.721 281.092,236.169 
		281.434,228.557 283.13,221.129 286.124,214.123 290.322,207.763 295.587,202.256 301.751,197.778 308.616,194.472 
		315.961,192.444 323.55,191.761 331.14,192.444 338.484,194.472 345.35,197.778 351.513,202.256 356.778,207.763 360.977,214.123 
		363.971,221.129 365.666,228.557 366.009,236.169 364.985,243.721 362.632,250.966 359.021,257.677 354.27,263.634 
		348.532,268.646 341.99,272.555 334.856,275.232 327.36,276.593 	"/>
</g>
<g id="Layer_2">
	<polygon fill="none" stroke="#3953A4" stroke-width="0.4657" stroke-miterlimit="10" points="281.055,265.367 283.495,261.143 
		287.899,253.514 292.241,245.994 296.745,238.193 301.248,230.393 304.194,225.29 305.783,222.538 310.164,214.95 314.636,207.204 
		318.915,199.792 323.54,191.783 327.711,199.006 332.469,207.247 335.105,211.813 336.993,215.083 341.262,222.476 
		342.866,225.255 345.859,230.44 350.402,238.311 354.766,245.866 358.459,252.266 359.386,253.871 363.727,261.387 
		366.023,265.367 358.5,265.367 350.375,265.367 342.75,265.367 335,265.367 327.624,265.367 319.5,265.367 312,265.367 
		304.25,265.367 296.5,265.367 289,265.367 	"/>
</g>
<g id="Layer_3" display="none">
	<polygon display="inline" fill="none" stroke="#3953A4" stroke-width="0.2642" stroke-miterlimit="10" points="366.07,191.783 
		358.5,191.783 350.367,191.783 342.875,191.783 335.01,191.783 327.376,191.783 312.125,191.783 304.002,191.783 296.5,191.783 
		288.625,191.783 281.031,191.783 281.031,199.5 281.031,207.25 281.031,214.996 281.031,222.625 281.031,230.381 281.031,245.875 
		281.031,253.63 281.031,261.377 281.031,268.994 281.031,276.822 296.25,276.822 350.25,276.822 358.375,276.822 366.07,276.822 
		366.07,269.125 366.07,261.375 366.07,253.625 366.07,245.875 366.07,238.375 366.07,230.25 366.07,222.5 366.07,214.625 
		366.07,207.375 366.07,199.625 	"/>
</g>
<g id="Layer_1" display="none">
	<polygon display="inline" fill="none" stroke="#3953A4" stroke-width="0.3134" stroke-miterlimit="10" points="319.74,276.593 
		312.244,276.822 305.11,276.822 298.569,276.822 288.062,276.822 281.031,276.822 281.031,250.966 281.031,243.721 
		281.092,236.169 281.092,228.688 281.092,221.125 281.031,213.625 281.031,207.25 281.031,200.625 281.031,195.312 
		281.031,191.783 302.625,191.783 323.55,191.761 333.75,191.783 344.438,191.783 351.5,191.761 359.25,191.783 366.07,191.783 
		366.07,202.562 366.07,217.5 366.07,229.375 365.945,234 366.07,243.721 366.07,250.966 366.07,257.677 366.07,263.634 
		366.07,268.646 366.07,276.822 334.856,276.593 327.36,276.593 	"/>
</g>
</svg>
