<?xml version="1.0" encoding="utf-8"?>
<!-- Generator: Adobe Illustrator 16.0.0, SVG Export Plug-In . SVG Version: 6.00 Build 0)  -->
<!DOCTYPE svg PUBLIC "-//W3C//DTD SVG 1.1//EN" "http://www.w3.org/Graphics/SVG/1.1/DTD/svg11.dtd">
<svg version="1.1" id="Layer_5" xmlns="http://www.w3.org/2000/svg" xmlns:xlink="http://www.w3.org/1999/xlink" x="0px" y="0px"
	 width="640px" height="480px" viewBox="0 0 640 480" enable-background="new 0 0 640 480" xml:space="preserve">
<polygon fill="none" stroke="#3953A4" stroke-width="0.3134" stroke-miterlimit="10" points="315.5,277.367 307.333,277.367 
	300.583,277.367 293,277.367 277.092,277.303 281.615,269.47 285.418,262.883 288.774,257.071 291.15,252.955 294.132,247.791 
	297.248,242.393 303.549,231.48 309.13,221.812 312.669,215.682 315.461,210.846 317.027,208.134 318.092,206.291 319.55,203.761 
	321.139,206.551 323.506,210.65 326.208,215.332 328.469,219.247 332.416,226.084 337.262,234.476 340.783,240.575 344.752,247.451 
	349.46,255.605 352.87,261.514 356.457,267.727 362.023,277.367 350.25,277.367 344,277.367 337,277.367 330.25,277.367 
	323.167,277.367 "/>
</svg>
