<?xml version="1.0" encoding="utf-8"?>
<!-- Generator: Adobe Illustrator 16.0.0, SVG Export Plug-In . SVG Version: 6.00 Build 0)  -->
<!DOCTYPE svg PUBLIC "-//W3C//DTD SVG 1.1//EN" "http://www.w3.org/Graphics/SVG/1.1/DTD/svg11.dtd">
<svg version="1.1" id="Layer_1" xmlns="http://www.w3.org/2000/svg" xmlns:xlink="http://www.w3.org/1999/xlink" x="0px" y="0px"
	 width="640px" height="480px" viewBox="0 0 640 480" enable-background="new 0 0 640 480" xml:space="preserve">
<path fill="none" stroke="#F912A4" stroke-width="0.5" stroke-miterlimit="10" d="M340.316,229.579l0.822,2.842l-0.318,3.405
	l-0.473,4.83l-2.572,5.234l-1.186,2.326l-2.488,2.27l-3.664,3.283l-3.322,1.412l-4.469,1.655l-3.871-0.035h-4.49l-4.053-1.532
	l-3.863-1.484l-3.675-3.417l-2.407-2.193l-2.151-4.224l-1.604-3.244l-0.4-4.194l-0.366-4.122l1.254-4.597l1.058-3.543l3.895-5.113
	l1.146-1.517l4.898-3.033l2.217-1.373l8.125-1.443l4.058,0.645l4.438,0.887l4.052,2.523l2.819,1.746l1.32,1.694l2.857,3.783
	l0.881,1.167l0.548,1.804L340.316,229.579z"/>
<polygon fill="#FFFFFF" stroke="#000000" stroke-width="0.0352" stroke-miterlimit="10" points="322.986,234.307 322.488,233.944 
	322.298,233.358 322.488,232.772 322.986,232.41 323.604,232.41 324.102,232.772 324.292,233.358 324.102,233.944 323.604,234.307 
	"/>
</svg>
