<?xml version="1.0" encoding="utf-8"?>
<!-- Generator: Adobe Illustrator 16.0.0, SVG Export Plug-In . SVG Version: 6.00 Build 0)  -->
<!DOCTYPE svg PUBLIC "-//W3C//DTD SVG 1.1//EN" "http://www.w3.org/Graphics/SVG/1.1/DTD/svg11.dtd">
<svg version="1.1" id="Layer_1" xmlns="http://www.w3.org/2000/svg" xmlns:xlink="http://www.w3.org/1999/xlink" x="0px" y="0px"
	 width="640px" height="480px" viewBox="0 0 640 480" enable-background="new 0 0 640 480" xml:space="preserve">
<path fill="none" stroke="#3953A4" stroke-width="0.209" stroke-miterlimit="10" d="M365.741,234.302
	c0,1.213-0.052,2.414-0.15,3.601c-0.231,2.753-0.725,5.432-1.454,8.011c-0.777,2.74-1.82,5.369-3.104,7.854
	c-0.838,1.623-1.774,3.187-2.807,4.676c-0.711,1.029-1.467,2.024-2.264,2.984c-1.656,2.002-3.498,3.848-5.49,5.514
	c-0.935,0.781-1.898,1.521-2.896,2.222c-1.618,1.133-3.318,2.153-5.092,3.06c-2.291,1.166-4.701,2.131-7.209,2.869
	c-2.543,0.75-10.653,1.732-12.057,1.732c-1.308,0-8.863-0.854-11.24-1.504c-2.748-0.75-5.385-1.771-7.881-3.025
	c-2.69-1.355-5.217-2.99-7.542-4.863c-2.208-1.779-4.235-3.775-6.048-5.955c-0.669-0.807-1.309-1.636-1.917-2.486
	c-1.198-1.678-2.278-3.446-3.226-5.295c-1.231-2.397-2.241-4.93-3.002-7.565c-0.747-2.584-1.254-5.271-1.499-8.031
	c-0.11-1.249,0.395-11.722,1.443-15.417c0.735-2.592,1.71-5.083,2.899-7.448c0.977-1.943,4.55-7.182,5.19-7.959
	c1.802-2.185,3.817-4.187,6.015-5.974c0.694-0.564,1.406-1.106,2.135-1.626c1.74-1.242,3.577-2.355,5.498-3.328
	c2.501-1.266,5.144-2.291,7.898-3.046c2.44-0.669,10.024-1.512,11.276-1.512c4.147,0,8.156,0.594,11.946,1.702
	c2.788,0.814,5.457,1.907,7.979,3.245c1.521,0.808,6.326,4.101,7.25,4.867c2.022,1.684,3.892,3.553,5.57,5.581
	c0.91,1.098,1.77,2.242,2.562,3.428c0.928,1.376,1.772,2.811,2.535,4.295c1.252,2.434,2.273,5.005,3.041,7.684
	c0.729,2.541,1.225,5.178,1.465,7.889C365.684,231.734,365.741,233.012,365.741,234.302z"/>
<polygon fill="#FFFFFF" stroke="#000000" stroke-width="0.0352" stroke-miterlimit="10" points="322.986,234.307 322.488,233.944 
	322.298,233.358 322.488,232.772 322.986,232.41 323.604,232.41 324.102,232.772 324.292,233.358 324.102,233.944 323.604,234.307 
	"/>
</svg>
