<?xml version="1.0" encoding="UTF-8" standalone="no"?>
<!-- Created with Inkscape (http://www.inkscape.org/) -->

<svg
   xmlns:dc="http://purl.org/dc/elements/1.1/"
   xmlns:cc="http://creativecommons.org/ns#"
   xmlns:rdf="http://www.w3.org/1999/02/22-rdf-syntax-ns#"
   xmlns:svg="http://www.w3.org/2000/svg"
   xmlns="http://www.w3.org/2000/svg"
   xmlns:sodipodi="http://sodipodi.sourceforge.net/DTD/sodipodi-0.dtd"
   xmlns:inkscape="http://www.inkscape.org/namespaces/inkscape"
   width="22.440063mm"
   height="22.398699mm"
   viewBox="0 0 79.512036 79.365468"
   id="svg5053"
   version="1.1"
   inkscape:version="0.91 r13725"
   sodipodi:docname="dessin33.svg">
  <defs
     id="defs5055" />
  <sodipodi:namedview
     id="base"
     pagecolor="#ffffff"
     bordercolor="#666666"
     borderopacity="1.0"
     inkscape:pageopacity="0.0"
     inkscape:pageshadow="2"
     inkscape:zoom="0.35"
     inkscape:cx="-533.81541"
     inkscape:cy="-40.317264"
     inkscape:document-units="px"
     inkscape:current-layer="layer1"
     showgrid="false"
     fit-margin-top="0"
     fit-margin-left="0"
     fit-margin-right="0"
     fit-margin-bottom="0"
     inkscape:window-width="1920"
     inkscape:window-height="1014"
     inkscape:window-x="0"
     inkscape:window-y="27"
     inkscape:window-maximized="1" />
  <metadata
     id="metadata5058">
    <rdf:RDF>
      <cc:Work
         rdf:about="">
        <dc:format>image/svg+xml</dc:format>
        <dc:type
           rdf:resource="http://purl.org/dc/dcmitype/StillImage" />
        <dc:title></dc:title>
      </cc:Work>
    </rdf:RDF>
  </metadata>
  <g
     inkscape:label="Calque 1"
     inkscape:groupmode="layer"
     id="layer1"
     transform="translate(-280.24399,-412.67947)">
    <polyline
       transform="translate(-186.48783,-38.35879)"
       style="fill:none;stroke:#3953a4;stroke-width:0.34310001;stroke-miterlimit:10"
       points="509.274,451.419 545.769,487.878    526.991,506.121 509.274,451.419 469.462,508.324 526.991,506.121 498.382,507.216 482.808,458.525 505.812,491.375    493.561,473.879 505.812,491.375 469.462,508.324 505.812,491.375 498.382,507.216 505.812,491.375 516.194,530.115    505.812,491.375 545.769,487.878 505.812,491.375 509.274,451.419 505.812,491.375 498.382,507.216 509.274,451.419    482.808,458.525 467.014,481.33 469.462,508.324 498.382,507.216 516.194,530.115 545.769,487.878 498.382,507.216    526.991,506.121 516.194,530.115 469.462,508.324 482.808,458.525 498.382,507.216 526.991,506.121 498.382,507.216    467.014,481.33 509.274,451.419  "
       id="polyline46" />
  </g>
</svg>
