<?xml version="1.0" encoding="UTF-8" standalone="no"?>
<!-- Created with Inkscape (http://www.inkscape.org/) -->

<svg
   xmlns:dc="http://purl.org/dc/elements/1.1/"
   xmlns:cc="http://creativecommons.org/ns#"
   xmlns:rdf="http://www.w3.org/1999/02/22-rdf-syntax-ns#"
   xmlns:svg="http://www.w3.org/2000/svg"
   xmlns="http://www.w3.org/2000/svg"
   xmlns:sodipodi="http://sodipodi.sourceforge.net/DTD/sodipodi-0.dtd"
   xmlns:inkscape="http://www.inkscape.org/namespaces/inkscape"
   width="22.604626mm"
   height="14.021912mm"
   viewBox="0 0 80.09513 49.683939"
   id="svg4788"
   version="1.1"
   inkscape:version="0.91 r13725"
   sodipodi:docname="dessin27.svg">
  <defs
     id="defs4790" />
  <sodipodi:namedview
     id="base"
     pagecolor="#ffffff"
     bordercolor="#666666"
     borderopacity="1.0"
     inkscape:pageopacity="0.0"
     inkscape:pageshadow="2"
     inkscape:zoom="0.35"
     inkscape:cx="-356.381"
     inkscape:cy="27.699112"
     inkscape:document-units="px"
     inkscape:current-layer="layer1"
     showgrid="false"
     fit-margin-top="0"
     fit-margin-left="0"
     fit-margin-right="0"
     fit-margin-bottom="0"
     inkscape:window-width="1920"
     inkscape:window-height="1014"
     inkscape:window-x="0"
     inkscape:window-y="27"
     inkscape:window-maximized="1" />
  <metadata
     id="metadata4793">
    <rdf:RDF>
      <cc:Work
         rdf:about="">
        <dc:format>image/svg+xml</dc:format>
        <dc:type
           rdf:resource="http://purl.org/dc/dcmitype/StillImage" />
        <dc:title></dc:title>
      </cc:Work>
    </rdf:RDF>
  </metadata>
  <g
     inkscape:label="Calque 1"
     inkscape:groupmode="layer"
     id="layer1"
     transform="translate(-102.80958,-510.37738)">
    <polyline
       transform="translate(-587.91446,140.70776)"
       style="fill:none;stroke:#3953a4;stroke-width:0.34310001;stroke-miterlimit:10"
       points="769.823,376.545 769.823,376.545    691.067,369.997 769.823,376.545 693.517,396.991 769.823,376.545 740.249,418.782 691.067,369.997 740.249,418.782    691.067,369.997 740.249,418.782 693.517,396.991 740.249,418.782 712.819,416.391 740.249,418.782 740.249,418.782    740.249,418.782 769.823,376.545 740.249,418.782 769.823,376.545 740.249,418.782 769.823,376.545 769.823,376.545    751.046,394.788 691.067,369.997 693.517,396.991 712.819,416.391 740.249,418.782 769.823,376.545 751.046,394.788    751.046,394.788 740.249,418.782 693.517,396.991 751.046,394.788 751.046,394.788 751.046,394.788 712.819,416.391    691.067,369.997 751.046,394.788  "
       id="polyline36" />
  </g>
</svg>
