<?xml version="1.0" encoding="UTF-8" standalone="no"?>
<!-- Created with Inkscape (http://www.inkscape.org/) -->

<svg
   xmlns:dc="http://purl.org/dc/elements/1.1/"
   xmlns:cc="http://creativecommons.org/ns#"
   xmlns:rdf="http://www.w3.org/1999/02/22-rdf-syntax-ns#"
   xmlns:svg="http://www.w3.org/2000/svg"
   xmlns="http://www.w3.org/2000/svg"
   xmlns:sodipodi="http://sodipodi.sourceforge.net/DTD/sodipodi-0.dtd"
   xmlns:inkscape="http://www.inkscape.org/namespaces/inkscape"
   width="22.418491mm"
   height="21.77887mm"
   viewBox="0 0 79.435599 77.169223"
   id="svg4325"
   version="1.1"
   inkscape:version="0.91 r13725"
   sodipodi:docname="dessin19.svg">
  <defs
     id="defs4327" />
  <sodipodi:namedview
     id="base"
     pagecolor="#ffffff"
     bordercolor="#666666"
     borderopacity="1.0"
     inkscape:pageopacity="0.0"
     inkscape:pageshadow="2"
     inkscape:zoom="0.35"
     inkscape:cx="-339.56791"
     inkscape:cy="-318.55824"
     inkscape:document-units="px"
     inkscape:current-layer="layer1"
     showgrid="false"
     fit-margin-top="0"
     fit-margin-left="0"
     fit-margin-right="0"
     fit-margin-bottom="0"
     inkscape:window-width="1920"
     inkscape:window-height="1014"
     inkscape:window-x="0"
     inkscape:window-y="27"
     inkscape:window-maximized="1" />
  <metadata
     id="metadata4330">
    <rdf:RDF>
      <cc:Work
         rdf:about="">
        <dc:format>image/svg+xml</dc:format>
        <dc:type
           rdf:resource="http://purl.org/dc/dcmitype/StillImage" />
        <dc:title></dc:title>
      </cc:Work>
    </rdf:RDF>
  </metadata>
  <g
     inkscape:label="Calque 1"
     inkscape:groupmode="layer"
     id="layer1"
     transform="translate(-85.996482,-136.63473)">
    <polyline
       transform="translate(-364.21227,-99.454463)"
       style="fill:none;stroke:#3953a4;stroke-width:0.34310001;stroke-miterlimit:10"
       points="489.223,276.669 529.179,273.172    510.402,291.415 492.686,236.714 452.873,293.618 510.402,291.415 459.479,268.968 510.402,291.415 489.223,276.669    450.425,266.624 489.223,276.669 452.873,293.618 489.223,276.669 472.176,313.018 489.223,276.669 510.402,291.415    489.223,276.669 529.179,273.172 489.223,276.669 492.686,236.714 489.223,276.669 510.402,291.415 492.686,236.714    466.219,243.82 450.425,266.624 452.873,293.618 472.176,313.018 510.402,291.415 529.179,273.172 492.686,236.714    510.402,291.415 510.402,291.415 452.873,293.618 466.219,243.82 492.686,236.714 510.402,291.415 472.176,313.018    450.425,266.624 492.686,236.714  "
       id="polyline54" />
  </g>
</svg>
