<?xml version="1.0" encoding="UTF-8" standalone="no"?>
<!-- Created with Inkscape (http://www.inkscape.org/) -->

<svg
   xmlns:dc="http://purl.org/dc/elements/1.1/"
   xmlns:cc="http://creativecommons.org/ns#"
   xmlns:rdf="http://www.w3.org/1999/02/22-rdf-syntax-ns#"
   xmlns:svg="http://www.w3.org/2000/svg"
   xmlns="http://www.w3.org/2000/svg"
   xmlns:sodipodi="http://sodipodi.sourceforge.net/DTD/sodipodi-0.dtd"
   xmlns:inkscape="http://www.inkscape.org/namespaces/inkscape"
   width="22.33684mm"
   height="19.804201mm"
   viewBox="0 0 79.146282 70.172366"
   id="svg4517"
   version="1.1"
   inkscape:version="0.91 r13725"
   sodipodi:docname="dessin23.svg">
  <defs
     id="defs4519" />
  <sodipodi:namedview
     id="base"
     pagecolor="#ffffff"
     bordercolor="#666666"
     borderopacity="1.0"
     inkscape:pageopacity="0.0"
     inkscape:pageshadow="2"
     inkscape:zoom="0.35"
     inkscape:cx="-691.14115"
     inkscape:cy="-133.48525"
     inkscape:document-units="px"
     inkscape:current-layer="layer1"
     showgrid="false"
     fit-margin-top="0"
     fit-margin-left="0"
     fit-margin-right="0"
     fit-margin-bottom="0"
     inkscape:window-width="1920"
     inkscape:window-height="1014"
     inkscape:window-x="0"
     inkscape:window-y="27"
     inkscape:window-maximized="1" />
  <metadata
     id="metadata4522">
    <rdf:RDF>
      <cc:Work
         rdf:about="">
        <dc:format>image/svg+xml</dc:format>
        <dc:type
           rdf:resource="http://purl.org/dc/dcmitype/StillImage" />
        <dc:title></dc:title>
      </cc:Work>
    </rdf:RDF>
  </metadata>
  <g
     inkscape:label="Calque 1"
     inkscape:groupmode="layer"
     id="layer1"
     transform="translate(-437.56972,-328.70459)">
    <polyline
       transform="translate(306.81319,-17.998294)"
       style="fill:none;stroke:#3953a4;stroke-width:0.34310001;stroke-miterlimit:10"
       points="152.684,416.391 209.687,376.545    190.911,394.788 152.684,416.391 133.381,396.991 190.911,394.788 169.731,380.042 146.728,347.192 169.731,380.042    130.933,369.997 169.731,380.042 133.381,396.991 169.731,380.042 152.684,416.391 169.731,380.042 152.684,416.391    169.731,380.042 209.687,376.545 169.731,380.042 152.684,416.391 169.731,380.042 198.194,351.6 152.684,416.391 146.728,347.192    130.933,369.997 133.381,396.991 152.684,416.391 152.684,416.391 209.687,376.545 198.194,351.6 190.911,394.788 152.684,416.391    133.381,396.991 146.728,347.192 198.194,351.6 190.911,394.788 152.684,416.391 130.933,369.997 152.684,416.391  "
       id="polyline26" />
  </g>
</svg>
