<?xml version="1.0" encoding="UTF-8" standalone="no"?>
<!-- Created with Inkscape (http://www.inkscape.org/) -->

<svg
   xmlns:dc="http://purl.org/dc/elements/1.1/"
   xmlns:cc="http://creativecommons.org/ns#"
   xmlns:rdf="http://www.w3.org/1999/02/22-rdf-syntax-ns#"
   xmlns:svg="http://www.w3.org/2000/svg"
   xmlns="http://www.w3.org/2000/svg"
   xmlns:sodipodi="http://sodipodi.sourceforge.net/DTD/sodipodi-0.dtd"
   xmlns:inkscape="http://www.inkscape.org/namespaces/inkscape"
   width="22.373047mm"
   height="22.68232mm"
   viewBox="0 0 79.274576 80.370424"
   id="svg4469"
   version="1.1"
   inkscape:version="0.91 r13725"
   sodipodi:docname="dessin22.svg">
  <defs
     id="defs4471" />
  <sodipodi:namedview
     id="base"
     pagecolor="#ffffff"
     bordercolor="#666666"
     borderopacity="1.0"
     inkscape:pageopacity="0.0"
     inkscape:pageshadow="2"
     inkscape:zoom="0.35"
     inkscape:cx="-722.50557"
     inkscape:cy="-151.24336"
     inkscape:document-units="px"
     inkscape:current-layer="layer1"
     showgrid="false"
     inkscape:window-width="1920"
     inkscape:window-height="1014"
     inkscape:window-x="0"
     inkscape:window-y="27"
     inkscape:window-maximized="1"
     fit-margin-top="0"
     fit-margin-left="0"
     fit-margin-right="0"
     fit-margin-bottom="0" />
  <metadata
     id="metadata4474">
    <rdf:RDF>
      <cc:Work
         rdf:about="">
        <dc:format>image/svg+xml</dc:format>
        <dc:type
           rdf:resource="http://purl.org/dc/dcmitype/StillImage" />
        <dc:title></dc:title>
      </cc:Work>
    </rdf:RDF>
  </metadata>
  <g
     inkscape:label="Calque 1"
     inkscape:groupmode="layer"
     id="layer1"
     transform="translate(-468.93414,-300.74842)">
    <polyline
       transform="translate(450.24439,-38.120277)"
       style="fill:none;stroke:#3953a4;stroke-width:0.34310001;stroke-miterlimit:10"
       points="61.167,340.086 97.66,376.545    50.175,395.833 61.167,340.086 21.354,396.991 50.175,395.833 68.087,418.782 50.175,395.833 57.704,380.042 18.906,369.997    57.704,380.042 21.354,396.991 57.704,380.042 40.657,416.391 57.704,380.042 68.087,418.782 57.704,380.042 97.66,376.545    57.704,380.042 61.167,340.086 57.704,380.042 68.087,418.782 61.167,340.086 50.175,395.833 18.906,369.997 21.354,396.991    40.657,416.391 68.087,418.782 97.66,376.545 68.087,418.782 50.175,395.833 68.087,418.782 21.354,396.991 50.175,395.833    68.087,418.782 50.175,395.833 40.657,416.391 18.906,369.997 61.167,340.086  "
       id="polyline24" />
  </g>
</svg>
