<?xml version="1.0" encoding="UTF-8" standalone="no"?>
<!-- Created with Inkscape (http://www.inkscape.org/) -->

<svg
   xmlns:dc="http://purl.org/dc/elements/1.1/"
   xmlns:cc="http://creativecommons.org/ns#"
   xmlns:rdf="http://www.w3.org/1999/02/22-rdf-syntax-ns#"
   xmlns:svg="http://www.w3.org/2000/svg"
   xmlns="http://www.w3.org/2000/svg"
   xmlns:sodipodi="http://sodipodi.sourceforge.net/DTD/sodipodi-0.dtd"
   xmlns:inkscape="http://www.inkscape.org/namespaces/inkscape"
   width="11.915149mm"
   height="16.968752mm"
   viewBox="0 0 42.219031 60.125499"
   id="svg4175"
   version="1.1"
   inkscape:version="0.91 r13725"
   sodipodi:docname="dessin16.svg">
  <defs
     id="defs4177" />
  <sodipodi:namedview
     id="base"
     pagecolor="#ffffff"
     bordercolor="#666666"
     borderopacity="1.0"
     inkscape:pageopacity="0.0"
     inkscape:pageshadow="2"
     inkscape:zoom="0.35"
     inkscape:cx="-438.1762"
     inkscape:cy="-149.93725"
     inkscape:document-units="px"
     inkscape:current-layer="layer1"
     showgrid="false"
     inkscape:window-width="1920"
     inkscape:window-height="1014"
     inkscape:window-x="0"
     inkscape:window-y="27"
     inkscape:window-maximized="1"
     fit-margin-top="0"
     fit-margin-left="0"
     fit-margin-right="0"
     fit-margin-bottom="0" />
  <metadata
     id="metadata4180">
    <rdf:RDF>
      <cc:Work
         rdf:about="">
        <dc:format>image/svg+xml</dc:format>
        <dc:type
           rdf:resource="http://purl.org/dc/dcmitype/StillImage" />
        <dc:title></dc:title>
      </cc:Work>
    </rdf:RDF>
  </metadata>
  <g
     inkscape:label="Calque 1"
     inkscape:groupmode="layer"
     id="layer1"
     transform="translate(-184.60477,-322.29946)">
    <polyline
       transform="translate(35.235969,76.349173)"
       style="fill:none;stroke:#3953a4;stroke-width:0.3425;stroke-miterlimit:10"
       points="178.882,246.332 185.715,268.165    191.072,284.222 178.882,246.332 151.382,285.832 191.072,284.222 169.925,269.499 157.882,251.999 169.925,269.499    149.548,263.832 169.925,269.499 151.382,285.832 169.925,269.499 152.905,305.792 169.925,269.499 176.057,292.486    169.925,269.499 185.715,268.165 169.925,269.499 178.882,246.332 169.925,269.499 182.293,256.999 178.882,246.332    157.882,251.999 149.548,263.832 151.382,285.832 152.905,305.792 176.057,292.486 185.715,268.165 182.293,256.999    191.072,284.222 176.057,292.486 151.382,285.832 157.882,251.999 182.293,256.999 191.072,284.222 152.905,305.792    149.548,263.832 178.882,246.332  "
       id="polyline8" />
  </g>
</svg>
