<?xml version="1.0" encoding="UTF-8" standalone="no"?>
<!-- Created with Inkscape (http://www.inkscape.org/) -->

<svg
   xmlns:dc="http://purl.org/dc/elements/1.1/"
   xmlns:cc="http://creativecommons.org/ns#"
   xmlns:rdf="http://www.w3.org/1999/02/22-rdf-syntax-ns#"
   xmlns:svg="http://www.w3.org/2000/svg"
   xmlns="http://www.w3.org/2000/svg"
   xmlns:sodipodi="http://sodipodi.sourceforge.net/DTD/sodipodi-0.dtd"
   xmlns:inkscape="http://www.inkscape.org/namespaces/inkscape"
   width="22.445002mm"
   height="20.353624mm"
   viewBox="0 0 79.529533 72.119141"
   id="svg4957"
   version="1.1"
   inkscape:version="0.91 r13725"
   sodipodi:docname="dessin31.svg">
  <defs
     id="defs4959" />
  <sodipodi:namedview
     id="base"
     pagecolor="#ffffff"
     bordercolor="#666666"
     borderopacity="1.0"
     inkscape:pageopacity="0.0"
     inkscape:pageshadow="2"
     inkscape:zoom="0.35"
     inkscape:cx="-348.09238"
     inkscape:cy="-15.369002"
     inkscape:document-units="px"
     inkscape:current-layer="layer1"
     showgrid="false"
     fit-margin-top="0"
     fit-margin-left="0"
     fit-margin-right="0"
     fit-margin-bottom="0"
     inkscape:window-width="1920"
     inkscape:window-height="1014"
     inkscape:window-x="0"
     inkscape:window-y="27"
     inkscape:window-maximized="1" />
  <metadata
     id="metadata4962">
    <rdf:RDF>
      <cc:Work
         rdf:about="">
        <dc:format>image/svg+xml</dc:format>
        <dc:type
           rdf:resource="http://purl.org/dc/dcmitype/StillImage" />
        <dc:title></dc:title>
      </cc:Work>
    </rdf:RDF>
  </metadata>
  <g
     inkscape:label="Calque 1"
     inkscape:groupmode="layer"
     id="layer1"
     transform="translate(-94.520949,-444.87406)">
    <polyline
       transform="translate(-148.12885,-13.350756)"
       style="fill:none;stroke:#3953a4;stroke-width:0.34310001;stroke-miterlimit:10"
       points="281.758,491.375 321.714,487.878    302.938,506.121 281.758,491.375 245.408,508.324 302.938,506.121 281.758,491.375 258.754,458.525 281.758,491.375 242.96,481.33    281.758,491.375 245.408,508.324 281.758,491.375 264.711,527.724 281.758,491.375 292.141,530.115 281.758,491.375    321.714,487.878 281.758,491.375 281.758,491.375 281.758,491.375 310.221,462.933 281.758,491.375 258.754,458.525 242.96,481.33    245.408,508.324 264.711,527.724 292.141,530.115 321.714,487.878 310.221,462.933 302.938,506.121 292.141,530.115    245.408,508.324 258.754,458.525 310.221,462.933 302.938,506.121 264.711,527.724 242.96,481.33 281.758,491.375  "
       id="polyline42" />
  </g>
</svg>
