<?xml version="1.0" encoding="UTF-8" standalone="no"?>
<!-- Created with Inkscape (http://www.inkscape.org/) -->

<svg
   xmlns:dc="http://purl.org/dc/elements/1.1/"
   xmlns:cc="http://creativecommons.org/ns#"
   xmlns:rdf="http://www.w3.org/1999/02/22-rdf-syntax-ns#"
   xmlns:svg="http://www.w3.org/2000/svg"
   xmlns="http://www.w3.org/2000/svg"
   xmlns:sodipodi="http://sodipodi.sourceforge.net/DTD/sodipodi-0.dtd"
   xmlns:inkscape="http://www.inkscape.org/namespaces/inkscape"
   width="22.577137mm"
   height="20.461525mm"
   viewBox="0 0 79.99773 72.501466"
   id="svg4025"
   version="1.1"
   inkscape:version="0.91 r13725"
   sodipodi:docname="dessin13.svg">
  <defs
     id="defs4027" />
  <sodipodi:namedview
     id="base"
     pagecolor="#ffffff"
     bordercolor="#666666"
     borderopacity="1.0"
     inkscape:pageopacity="0.0"
     inkscape:pageshadow="2"
     inkscape:zoom="0.35"
     inkscape:cx="-736.42971"
     inkscape:cy="-66.606406"
     inkscape:document-units="px"
     inkscape:current-layer="layer1"
     showgrid="false"
     fit-margin-top="0"
     fit-margin-left="0"
     fit-margin-right="0"
     fit-margin-bottom="0"
     inkscape:window-width="1920"
     inkscape:window-height="1014"
     inkscape:window-x="0"
     inkscape:window-y="27"
     inkscape:window-maximized="1" />
  <metadata
     id="metadata4030">
    <rdf:RDF>
      <cc:Work
         rdf:about="">
        <dc:format>image/svg+xml</dc:format>
        <dc:type
           rdf:resource="http://purl.org/dc/dcmitype/StillImage" />
        <dc:title></dc:title>
      </cc:Work>
    </rdf:RDF>
  </metadata>
  <g
     inkscape:label="Calque 1"
     inkscape:groupmode="layer"
     id="layer1"
     transform="translate(-482.85828,-393.25433)">
    <polyline
       transform="translate(-79.763252,263.12392)"
       style="fill:none;stroke:#3953a4;stroke-width:0.34310001;stroke-miterlimit:10"
       points="586.979,190.707 641.552,159.983    622.775,178.226 586.979,190.707 565.245,180.429 622.775,178.226 584.549,199.829 578.593,130.63 584.549,199.829    562.798,153.434 584.549,199.829 565.245,180.429 584.549,199.829 584.549,199.829 584.549,199.829 611.979,202.22    584.549,199.829 641.552,159.983 584.549,199.829 586.979,190.707 584.549,199.829 611.979,202.22 586.979,190.707 578.593,130.63    562.798,153.434 565.245,180.429 584.549,199.829 611.979,202.22 641.552,159.983 611.979,202.22 622.775,178.226 611.979,202.22    565.245,180.429 578.593,130.63 611.979,202.22 622.775,178.226 584.549,199.829 562.798,153.434 586.979,190.707  "
       id="polyline64" />
  </g>
</svg>
