<?xml version="1.0" encoding="UTF-8" standalone="no"?>
<!-- Created with Inkscape (http://www.inkscape.org/) -->

<svg
   xmlns:dc="http://purl.org/dc/elements/1.1/"
   xmlns:cc="http://creativecommons.org/ns#"
   xmlns:rdf="http://www.w3.org/1999/02/22-rdf-syntax-ns#"
   xmlns:svg="http://www.w3.org/2000/svg"
   xmlns="http://www.w3.org/2000/svg"
   xmlns:sodipodi="http://sodipodi.sourceforge.net/DTD/sodipodi-0.dtd"
   xmlns:inkscape="http://www.inkscape.org/namespaces/inkscape"
   width="22.356142mm"
   height="22.381546mm"
   viewBox="0 0 79.214677 79.30469"
   id="svg3417"
   version="1.1"
   inkscape:version="0.91 r13725"
   sodipodi:docname="dessin01.svg">
  <defs
     id="defs3419" />
  <sodipodi:namedview
     id="base"
     pagecolor="#ffffff"
     bordercolor="#666666"
     borderopacity="1.0"
     inkscape:pageopacity="0.0"
     inkscape:pageshadow="2"
     inkscape:zoom="0.35"
     inkscape:cx="1008.893"
     inkscape:cy="-283.20479"
     inkscape:document-units="px"
     inkscape:current-layer="layer1"
     showgrid="false"
     fit-margin-top="0"
     fit-margin-left="0"
     fit-margin-right="0"
     fit-margin-bottom="0"
     inkscape:window-width="1920"
     inkscape:window-height="1014"
     inkscape:window-x="0"
     inkscape:window-y="27"
     inkscape:window-maximized="1" />
  <metadata
     id="metadata3422">
    <rdf:RDF>
      <cc:Work
         rdf:about="">
        <dc:format>image/svg+xml</dc:format>
        <dc:type
           rdf:resource="http://purl.org/dc/dcmitype/StillImage" />
        <dc:title></dc:title>
      </cc:Work>
    </rdf:RDF>
  </metadata>
  <g
     inkscape:label="Calque 1"
     inkscape:groupmode="layer"
     id="layer1"
     transform="translate(1262.4644,-169.85272)">
    <polyline
       transform="translate(-1281.1542,144.47345)"
       style="fill:none;stroke:#3953a4;stroke-width:0.34310001;stroke-miterlimit:10"
       points="61.167,25.76 97.66,62.218    78.884,80.46 61.167,25.76 21.354,82.664 78.884,80.46 57.704,65.714 34.701,32.865 57.704,65.714 18.906,55.669 57.704,65.714    21.354,82.664 57.704,65.714 40.657,102.063 57.704,65.714 68.087,104.455 57.704,65.714 97.66,62.218 57.704,65.714 61.167,25.76    57.704,65.714 86.167,37.272 61.167,25.76 34.701,32.865 18.906,55.669 21.354,82.664 40.657,102.063 68.087,104.455 97.66,62.218    86.167,37.272 78.884,80.46 68.087,104.455 21.354,82.664 34.701,32.865 86.167,37.272 78.884,80.46 40.657,102.063 18.906,55.669    61.167,25.76  "
       id="polyline22" />
  </g>
</svg>
