<?xml version="1.0" encoding="UTF-8" standalone="no"?>
<!-- Created with Inkscape (http://www.inkscape.org/) -->

<svg
   xmlns:dc="http://purl.org/dc/elements/1.1/"
   xmlns:cc="http://creativecommons.org/ns#"
   xmlns:rdf="http://www.w3.org/1999/02/22-rdf-syntax-ns#"
   xmlns:svg="http://www.w3.org/2000/svg"
   xmlns="http://www.w3.org/2000/svg"
   xmlns:sodipodi="http://sodipodi.sourceforge.net/DTD/sodipodi-0.dtd"
   xmlns:inkscape="http://www.inkscape.org/namespaces/inkscape"
   width="22.351095mm"
   height="22.326267mm"
   viewBox="0 0 79.196794 79.108821"
   id="svg3833"
   version="1.1"
   inkscape:version="0.91 r13725"
   sodipodi:docname="dessin09.svg">
  <defs
     id="defs3835" />
  <sodipodi:namedview
     id="base"
     pagecolor="#ffffff"
     bordercolor="#666666"
     borderopacity="1.0"
     inkscape:pageopacity="0.0"
     inkscape:pageshadow="2"
     inkscape:zoom="2.8"
     inkscape:cx="33.517973"
     inkscape:cy="-3.6393869"
     inkscape:document-units="px"
     inkscape:current-layer="layer1"
     showgrid="false"
     fit-margin-top="0"
     fit-margin-left="0"
     fit-margin-right="0"
     fit-margin-bottom="0"
     inkscape:window-width="1920"
     inkscape:window-height="1014"
     inkscape:window-x="0"
     inkscape:window-y="27"
     inkscape:window-maximized="1" />
  <metadata
     id="metadata3838">
    <rdf:RDF>
      <cc:Work
         rdf:about="">
        <dc:format>image/svg+xml</dc:format>
        <dc:type
           rdf:resource="http://purl.org/dc/dcmitype/StillImage" />
        <dc:title></dc:title>
      </cc:Work>
    </rdf:RDF>
  </metadata>
  <g
     inkscape:label="Calque 1"
     inkscape:groupmode="layer"
     id="layer1"
     transform="translate(-366.11589,-289.95065)">
    <polyline
       transform="translate(235.16376,162.95044)"
       style="fill:none;stroke:#3953a4;stroke-width:0.3425;stroke-miterlimit:10"
       points="169.905,167.031 169.905,167.031    191.051,181.754 169.905,167.031 169.905,167.031 191.051,181.754 169.905,167.031 169.905,167.031 169.905,167.031    131.168,157.001 169.905,167.031 169.905,167.031 169.905,167.031 169.905,167.031 169.905,167.031 169.905,167.031    169.905,167.031 209.798,163.541 169.905,167.031 173.362,127.14 169.905,167.031 169.905,167.031 173.362,127.14 169.905,167.031    131.168,157.001 169.905,167.031 169.905,167.031 180.271,205.71 209.798,163.541 169.905,167.031 191.051,181.754 180.271,205.71    133.612,183.954 146.938,134.234 170.812,167.663 191.051,181.754 152.885,203.323 131.168,157.001 173.362,127.14  "
       id="polyline18" />
  </g>
</svg>
