<?xml version="1.0" encoding="UTF-8" standalone="no"?>
<!-- Created with Inkscape (http://www.inkscape.org/) -->

<svg
   xmlns:dc="http://purl.org/dc/elements/1.1/"
   xmlns:cc="http://creativecommons.org/ns#"
   xmlns:rdf="http://www.w3.org/1999/02/22-rdf-syntax-ns#"
   xmlns:svg="http://www.w3.org/2000/svg"
   xmlns="http://www.w3.org/2000/svg"
   xmlns:sodipodi="http://sodipodi.sourceforge.net/DTD/sodipodi-0.dtd"
   xmlns:inkscape="http://www.inkscape.org/namespaces/inkscape"
   width="22.395437mm"
   height="22.512964mm"
   viewBox="0 0 79.353911 79.770345"
   id="svg5101"
   version="1.1"
   inkscape:version="0.91 r13725"
   sodipodi:docname="dessin34.svg">
  <defs
     id="defs5103" />
  <sodipodi:namedview
     id="base"
     pagecolor="#ffffff"
     bordercolor="#666666"
     borderopacity="1.0"
     inkscape:pageopacity="0.0"
     inkscape:pageshadow="2"
     inkscape:zoom="0.35"
     inkscape:cx="-471.03733"
     inkscape:cy="-54.400541"
     inkscape:document-units="px"
     inkscape:current-layer="layer1"
     showgrid="false"
     fit-margin-top="0"
     fit-margin-left="0"
     fit-margin-right="0"
     fit-margin-bottom="0"
     inkscape:window-width="1920"
     inkscape:window-height="1014"
     inkscape:window-x="0"
     inkscape:window-y="27"
     inkscape:window-maximized="1" />
  <metadata
     id="metadata5106">
    <rdf:RDF>
      <cc:Work
         rdf:about="">
        <dc:format>image/svg+xml</dc:format>
        <dc:type
           rdf:resource="http://purl.org/dc/dcmitype/StillImage" />
        <dc:title></dc:title>
      </cc:Work>
    </rdf:RDF>
  </metadata>
  <g
     inkscape:label="Calque 1"
     inkscape:groupmode="layer"
     id="layer1"
     transform="translate(-217.4659,-398.19132)">
    <polyline
       transform="translate(-361.35785,-52.605203)"
       style="fill:none;stroke:#3953a4;stroke-width:0.34310001;stroke-miterlimit:10"
       points="621.302,451.419 657.796,487.878    617.839,491.375 621.302,451.419 581.489,508.324 617.839,491.375 617.839,491.375 628.222,530.115 617.839,491.375 579.04,481.33    617.839,491.375 581.489,508.324 617.839,491.375 600.792,527.724 617.839,491.375 628.222,530.115 617.839,491.375    657.796,487.878 617.839,491.375 621.302,451.419 617.839,491.375 646.302,462.933 621.302,451.419 628.222,530.115 579.04,481.33    581.489,508.324 600.792,527.724 628.222,530.115 657.796,487.878 646.302,462.933 617.839,491.375 628.222,530.115    581.489,508.324 628.222,530.115 646.302,462.933 617.839,491.375 600.792,527.724 579.04,481.33 621.302,451.419  "
       id="polyline48" />
  </g>
</svg>
