<?xml version="1.0" encoding="UTF-8" standalone="no"?>
<!-- Created with Inkscape (http://www.inkscape.org/) -->

<svg
   xmlns:dc="http://purl.org/dc/elements/1.1/"
   xmlns:cc="http://creativecommons.org/ns#"
   xmlns:rdf="http://www.w3.org/1999/02/22-rdf-syntax-ns#"
   xmlns:svg="http://www.w3.org/2000/svg"
   xmlns="http://www.w3.org/2000/svg"
   xmlns:sodipodi="http://sodipodi.sourceforge.net/DTD/sodipodi-0.dtd"
   xmlns:inkscape="http://www.inkscape.org/namespaces/inkscape"
   width="22.300976mm"
   height="20.336342mm"
   viewBox="0 0 79.019206 72.057904"
   id="svg3526"
   version="1.1"
   inkscape:version="0.91 r13725"
   sodipodi:docname="dessin03.svg">
  <defs
     id="defs3528" />
  <sodipodi:namedview
     id="base"
     pagecolor="#ffffff"
     bordercolor="#666666"
     borderopacity="1.0"
     inkscape:pageopacity="0.0"
     inkscape:pageshadow="2"
     inkscape:zoom="0.35"
     inkscape:cx="-522.63326"
     inkscape:cy="-229.68533"
     inkscape:document-units="px"
     inkscape:current-layer="layer1"
     showgrid="false"
     inkscape:window-width="1920"
     inkscape:window-height="1014"
     inkscape:window-x="0"
     inkscape:window-y="27"
     inkscape:window-maximized="1"
     fit-margin-top="0"
     fit-margin-left="0"
     fit-margin-right="0"
     fit-margin-bottom="0" />
  <metadata
     id="metadata3531">
    <rdf:RDF>
      <cc:Work
         rdf:about="">
        <dc:format>image/svg+xml</dc:format>
        <dc:type
           rdf:resource="http://purl.org/dc/dcmitype/StillImage" />
        <dc:title></dc:title>
      </cc:Work>
    </rdf:RDF>
  </metadata>
  <g
     inkscape:label="Calque 1"
     inkscape:groupmode="layer"
     id="layer1"
     transform="translate(-269.06183,-230.61897)">
    <polyline
       transform="translate(33.004341,201.43283)"
       style="fill:none;stroke:#3953a4;stroke-width:0.3425;stroke-miterlimit:10"
       points="274.987,62.166 274.987,62.166    296.134,76.889 274.987,62.166 274.987,62.166 296.134,76.889 274.987,62.166 274.987,62.166 274.987,62.166 274.987,62.166    274.987,62.166 274.987,62.166 274.987,62.166 274.987,62.166 274.987,62.166 274.987,62.166 274.987,62.166 314.88,58.675    274.987,62.166 274.987,62.166 274.987,62.166 274.987,62.166 274.987,62.166 274.987,62.166 236.25,52.136 238.694,79.088    274.987,62.166 285.354,100.845 314.88,58.675 303.405,33.769 296.134,76.889 285.354,100.845 238.694,79.088 252.021,29.369    303.405,33.769 296.134,76.889 274.987,62.166 236.25,52.136 274.987,62.166  "
       id="polyline20" />
  </g>
</svg>
