<?xml version="1.0" encoding="UTF-8" standalone="no"?>
<!-- Created with Inkscape (http://www.inkscape.org/) -->

<svg
   xmlns:dc="http://purl.org/dc/elements/1.1/"
   xmlns:cc="http://creativecommons.org/ns#"
   xmlns:rdf="http://www.w3.org/1999/02/22-rdf-syntax-ns#"
   xmlns:svg="http://www.w3.org/2000/svg"
   xmlns="http://www.w3.org/2000/svg"
   xmlns:sodipodi="http://sodipodi.sourceforge.net/DTD/sodipodi-0.dtd"
   xmlns:inkscape="http://www.inkscape.org/namespaces/inkscape"
   width="18.601341mm"
   height="22.389267mm"
   viewBox="0 0 65.910264 79.332048"
   id="svg5155"
   version="1.1"
   inkscape:version="0.91 r13725"
   sodipodi:docname="dessin35.svg">
  <defs
     id="defs5157" />
  <sodipodi:namedview
     id="base"
     pagecolor="#ffffff"
     bordercolor="#666666"
     borderopacity="1.0"
     inkscape:pageopacity="0.0"
     inkscape:pageshadow="2"
     inkscape:zoom="0.35"
     inkscape:cx="-712.04487"
     inkscape:cy="122.52317"
     inkscape:document-units="px"
     inkscape:current-layer="layer1"
     showgrid="false"
     fit-margin-top="0"
     fit-margin-left="0"
     fit-margin-right="0"
     fit-margin-bottom="0"
     inkscape:window-width="1920"
     inkscape:window-height="1014"
     inkscape:window-x="0"
     inkscape:window-y="27"
     inkscape:window-maximized="1" />
  <metadata
     id="metadata5160">
    <rdf:RDF>
      <cc:Work
         rdf:about="">
        <dc:format>image/svg+xml</dc:format>
        <dc:type
           rdf:resource="http://purl.org/dc/dcmitype/StillImage" />
        <dc:title></dc:title>
      </cc:Work>
    </rdf:RDF>
  </metadata>
  <g
     inkscape:label="Calque 1"
     inkscape:groupmode="layer"
     id="layer1"
     transform="translate(-458.47344,-575.55332)">
    <polyline
       transform="translate(-234.2408,124.51506)"
       style="fill:none;stroke:#3953a4;stroke-width:0.34310001;stroke-miterlimit:10"
       points="733.329,451.419 693.517,508.324    751.046,506.121 733.329,451.419 693.517,508.324 751.046,506.121 729.866,491.375 740.249,530.115 729.866,491.375    740.249,530.115 729.866,491.375 693.517,508.324 729.866,491.375 712.819,527.724 729.866,491.375 740.249,530.115    729.866,491.375 693.517,508.324 729.866,491.375 733.329,451.419 729.866,491.375 758.329,462.933 733.329,451.419    740.249,530.115 740.249,530.115 693.517,508.324 712.819,527.724 740.249,530.115 693.517,508.324 758.329,462.933    751.046,506.121 740.249,530.115 693.517,508.324 740.249,530.115 758.329,462.933 751.046,506.121 712.819,527.724    740.249,530.115 733.329,451.419  "
       id="polyline50" />
  </g>
</svg>
