<?xml version="1.0" encoding="UTF-8" standalone="no"?>
<!-- Created with Inkscape (http://www.inkscape.org/) -->

<svg
   xmlns:dc="http://purl.org/dc/elements/1.1/"
   xmlns:cc="http://creativecommons.org/ns#"
   xmlns:rdf="http://www.w3.org/1999/02/22-rdf-syntax-ns#"
   xmlns:svg="http://www.w3.org/2000/svg"
   xmlns="http://www.w3.org/2000/svg"
   xmlns:sodipodi="http://sodipodi.sourceforge.net/DTD/sodipodi-0.dtd"
   xmlns:inkscape="http://www.inkscape.org/namespaces/inkscape"
   width="22.458609mm"
   height="20.496525mm"
   viewBox="0 0 79.577747 72.625481"
   id="svg3929"
   version="1.1"
   inkscape:version="0.91 r13725"
   sodipodi:docname="dessin11.svg">
  <defs
     id="defs3931" />
  <sodipodi:namedview
     id="base"
     pagecolor="#ffffff"
     bordercolor="#666666"
     borderopacity="1.0"
     inkscape:pageopacity="0.0"
     inkscape:pageshadow="2"
     inkscape:zoom="0.35"
     inkscape:cx="-713.78256"
     inkscape:cy="-235.11583"
     inkscape:document-units="px"
     inkscape:current-layer="layer1"
     showgrid="false"
     fit-margin-top="0"
     fit-margin-left="0"
     fit-margin-right="0"
     fit-margin-bottom="0"
     inkscape:window-width="1920"
     inkscape:window-height="1014"
     inkscape:window-x="0"
     inkscape:window-y="27"
     inkscape:window-maximized="1" />
  <metadata
     id="metadata3934">
    <rdf:RDF>
      <cc:Work
         rdf:about="">
        <dc:format>image/svg+xml</dc:format>
        <dc:type
           rdf:resource="http://purl.org/dc/dcmitype/StillImage" />
        <dc:title></dc:title>
      </cc:Work>
    </rdf:RDF>
  </metadata>
  <g
     inkscape:label="Calque 1"
     inkscape:groupmode="layer"
     id="layer1"
     transform="translate(-460.21113,-224.62089)">
    <polyline
       transform="translate(113.82508,94.516983)"
       style="fill:none;stroke:#3953a4;stroke-width:0.34310001;stroke-miterlimit:10"
       points="396.133,202.22 425.706,159.983    406.929,178.226 396.133,202.22 385.75,163.479 406.929,178.226 385.75,163.479 362.746,130.63 385.75,163.479 346.952,153.434    385.75,163.479 385.75,163.479 385.75,163.479 368.703,199.829 385.75,163.479 396.133,202.22 385.75,163.479 425.706,159.983    385.75,163.479 396.133,202.22 385.75,163.479 362.746,130.63 396.133,202.22 362.746,130.63 346.952,153.434 385.75,163.479    368.703,199.829 396.133,202.22 425.706,159.983 362.746,130.63 406.929,178.226 396.133,202.22 385.75,163.479 362.746,130.63    362.746,130.63 406.929,178.226 368.703,199.829 346.952,153.434 396.133,202.22  "
       id="polyline70" />
  </g>
</svg>
