<?xml version="1.0" encoding="UTF-8" standalone="no"?>
<!-- Created with Inkscape (http://www.inkscape.org/) -->

<svg
   xmlns:dc="http://purl.org/dc/elements/1.1/"
   xmlns:cc="http://creativecommons.org/ns#"
   xmlns:rdf="http://www.w3.org/1999/02/22-rdf-syntax-ns#"
   xmlns:svg="http://www.w3.org/2000/svg"
   xmlns="http://www.w3.org/2000/svg"
   xmlns:sodipodi="http://sodipodi.sourceforge.net/DTD/sodipodi-0.dtd"
   xmlns:inkscape="http://www.inkscape.org/namespaces/inkscape"
   width="22.465973mm"
   height="22.355379mm"
   viewBox="0 0 79.603841 79.211973"
   id="svg3785"
   version="1.1"
   inkscape:version="0.91 r13725"
   sodipodi:docname="dessin08.svg">
  <defs
     id="defs3787" />
  <sodipodi:namedview
     id="base"
     pagecolor="#ffffff"
     bordercolor="#666666"
     borderopacity="1.0"
     inkscape:pageopacity="0.0"
     inkscape:pageshadow="2"
     inkscape:zoom="0.35"
     inkscape:cx="-333.76951"
     inkscape:cy="-137.53687"
     inkscape:document-units="px"
     inkscape:current-layer="layer1"
     showgrid="false"
     fit-margin-top="0"
     fit-margin-left="0"
     fit-margin-right="0"
     fit-margin-bottom="0"
     inkscape:window-width="1920"
     inkscape:window-height="1014"
     inkscape:window-x="0"
     inkscape:window-y="27"
     inkscape:window-maximized="1" />
  <metadata
     id="metadata3790">
    <rdf:RDF>
      <cc:Work
         rdf:about="">
        <dc:format>image/svg+xml</dc:format>
        <dc:type
           rdf:resource="http://purl.org/dc/dcmitype/StillImage" />
        <dc:title></dc:title>
      </cc:Work>
    </rdf:RDF>
  </metadata>
  <g
     inkscape:label="Calque 1"
     inkscape:groupmode="layer"
     id="layer1"
     transform="translate(-80.198078,-315.61337)">
    <polyline
       transform="translate(57.730234,188.88678)"
       style="fill:none;stroke:#3953a4;stroke-width:0.3425;stroke-miterlimit:10"
       points="74.355,154.667 23.245,157.001    83.128,181.754 65.439,127.14 34.053,180.054 83.128,181.754 61.982,167.031 74.355,154.667 61.982,167.031 90.4,138.634    61.982,167.031 41.279,161.671 61.982,167.031 44.961,203.323 61.982,167.031 61.982,167.031 61.982,167.031 101.875,163.541    61.982,167.031 65.439,127.14 61.982,167.031 41.279,161.671 65.439,127.14 83.128,181.754 23.245,157.001 25.689,183.954    44.961,203.323 72.349,205.71 101.875,163.541 90.4,138.634 83.128,181.754 72.349,205.71 25.689,183.954 68.19,190.196    90.4,138.634 83.128,181.754 44.961,203.323 23.245,157.001 65.439,127.14  "
       id="polyline12" />
  </g>
</svg>
