<?xml version="1.0" encoding="UTF-8" standalone="no"?>
<!-- Created with Inkscape (http://www.inkscape.org/) -->

<svg
   xmlns:dc="http://purl.org/dc/elements/1.1/"
   xmlns:cc="http://creativecommons.org/ns#"
   xmlns:rdf="http://www.w3.org/1999/02/22-rdf-syntax-ns#"
   xmlns:svg="http://www.w3.org/2000/svg"
   xmlns="http://www.w3.org/2000/svg"
   xmlns:sodipodi="http://sodipodi.sourceforge.net/DTD/sodipodi-0.dtd"
   xmlns:inkscape="http://www.inkscape.org/namespaces/inkscape"
   width="22.580887mm"
   height="20.385965mm"
   viewBox="0 0 80.011016 72.233735"
   id="svg3977"
   version="1.1"
   inkscape:version="0.91 r13725"
   sodipodi:docname="dessin12.svg">
  <defs
     id="defs3979" />
  <sodipodi:namedview
     id="base"
     pagecolor="#ffffff"
     bordercolor="#666666"
     borderopacity="1.0"
     inkscape:pageopacity="0.0"
     inkscape:pageshadow="2"
     inkscape:zoom="0.35"
     inkscape:cx="-456.42307"
     inkscape:cy="-118.16885"
     inkscape:document-units="px"
     inkscape:current-layer="layer1"
     showgrid="false"
     fit-margin-top="0"
     fit-margin-left="0"
     fit-margin-right="0"
     fit-margin-bottom="0"
     inkscape:window-width="1920"
     inkscape:window-height="1014"
     inkscape:window-x="0"
     inkscape:window-y="27"
     inkscape:window-maximized="1" />
  <metadata
     id="metadata3982">
    <rdf:RDF>
      <cc:Work
         rdf:about="">
        <dc:format>image/svg+xml</dc:format>
        <dc:type
           rdf:resource="http://purl.org/dc/dcmitype/StillImage" />
        <dc:title></dc:title>
      </cc:Work>
    </rdf:RDF>
  </metadata>
  <g
     inkscape:label="Calque 1"
     inkscape:groupmode="layer"
     id="layer1"
     transform="translate(-168.56592,-313.3882)">
    <polyline
       transform="translate(-285.76507,183.17297)"
       style="fill:none;stroke:#3953a4;stroke-width:0.34310001;stroke-miterlimit:10"
       points="482.169,179.479 533.629,159.983    514.853,178.226 482.169,179.479 457.323,180.429 514.853,178.226 476.626,199.829 470.669,130.63 476.626,199.829    454.875,153.434 476.626,199.829 457.323,180.429 476.626,199.829 476.626,199.829 476.626,199.829 504.056,202.22    476.626,199.829 533.629,159.983 476.626,199.829 482.169,179.479 476.626,199.829 522.136,135.038 482.169,179.479    470.669,130.63 454.875,153.434 457.323,180.429 476.626,199.829 504.056,202.22 533.629,159.983 522.136,135.038 514.853,178.226    504.056,202.22 457.323,180.429 470.669,130.63 522.136,135.038 514.853,178.226 476.626,199.829 454.875,153.434 482.169,179.479     "
       id="polyline68" />
  </g>
</svg>
