<?xml version="1.0" encoding="UTF-8" standalone="no"?>
<!-- Created with Inkscape (http://www.inkscape.org/) -->

<svg
   xmlns:dc="http://purl.org/dc/elements/1.1/"
   xmlns:cc="http://creativecommons.org/ns#"
   xmlns:rdf="http://www.w3.org/1999/02/22-rdf-syntax-ns#"
   xmlns:svg="http://www.w3.org/2000/svg"
   xmlns="http://www.w3.org/2000/svg"
   xmlns:sodipodi="http://sodipodi.sourceforge.net/DTD/sodipodi-0.dtd"
   xmlns:inkscape="http://www.inkscape.org/namespaces/inkscape"
   width="21.813269mm"
   height="16.090267mm"
   viewBox="0 0 77.291109 57.012757"
   id="svg4715"
   version="1.1"
   inkscape:version="0.91 r13725"
   sodipodi:docname="dessin7.svg">
  <defs
     id="defs4717" />
  <sodipodi:namedview
     id="base"
     pagecolor="#ffffff"
     bordercolor="#666666"
     borderopacity="1.0"
     inkscape:pageopacity="0.0"
     inkscape:pageshadow="2"
     inkscape:zoom="0.35"
     inkscape:cx="-432.06874"
     inkscape:cy="-237.20791"
     inkscape:document-units="px"
     inkscape:current-layer="layer1"
     showgrid="false"
     fit-margin-top="0"
     fit-margin-left="0"
     fit-margin-right="0"
     fit-margin-bottom="0"
     inkscape:window-width="1920"
     inkscape:window-height="1014"
     inkscape:window-x="0"
     inkscape:window-y="27"
     inkscape:window-maximized="1" />
  <metadata
     id="metadata4720">
    <rdf:RDF>
      <cc:Work
         rdf:about="">
        <dc:format>image/svg+xml</dc:format>
        <dc:type
           rdf:resource="http://purl.org/dc/dcmitype/StillImage" />
        <dc:title></dc:title>
      </cc:Work>
    </rdf:RDF>
  </metadata>
  <g
     inkscape:label="Calque 1"
     inkscape:groupmode="layer"
     id="layer1"
     transform="translate(-178.49731,-238.14154)">
    <polyline
       transform="translate(-402.33173,-123.85666)"
       style="fill:none;stroke:#3953a4;stroke-width:0.34310001;stroke-miterlimit:10"
       points="630.231,367.658 657.796,376.545    639.019,394.788 630.231,367.658 581.489,396.991 639.019,394.788 617.839,380.042 605.718,362.208 617.839,380.042    605.718,362.208 617.839,380.042 581.489,396.991 617.839,380.042 600.792,416.391 617.839,380.042 628.222,418.782    617.839,380.042 657.796,376.545 617.839,380.042 630.231,367.658 617.839,380.042 630.231,367.658 630.231,367.658    605.718,362.208 605.718,362.208 581.489,396.991 600.792,416.391 628.222,418.782 657.796,376.545 630.231,367.658    639.019,394.788 628.222,418.782 581.489,396.991 605.718,362.208 605.718,362.208 639.019,394.788 600.792,416.391    605.718,362.208 630.231,367.658  "
       id="polyline34" />
  </g>
</svg>
