<?xml version="1.0" encoding="UTF-8" standalone="no"?>
<!-- Created with Inkscape (http://www.inkscape.org/) -->

<svg
   xmlns:dc="http://purl.org/dc/elements/1.1/"
   xmlns:cc="http://creativecommons.org/ns#"
   xmlns:rdf="http://www.w3.org/1999/02/22-rdf-syntax-ns#"
   xmlns:svg="http://www.w3.org/2000/svg"
   xmlns="http://www.w3.org/2000/svg"
   xmlns:sodipodi="http://sodipodi.sourceforge.net/DTD/sodipodi-0.dtd"
   xmlns:inkscape="http://www.inkscape.org/namespaces/inkscape"
   width="19.143024mm"
   height="20.353624mm"
   viewBox="0 0 67.829614 72.119141"
   id="svg4571"
   version="1.1"
   inkscape:version="0.91 r13725"
   sodipodi:docname="dessin24.svg">
  <defs
     id="defs4573" />
  <sodipodi:namedview
     id="base"
     pagecolor="#ffffff"
     bordercolor="#666666"
     borderopacity="1.0"
     inkscape:pageopacity="0.0"
     inkscape:pageshadow="2"
     inkscape:zoom="0.35"
     inkscape:cx="-693.94234"
     inkscape:cy="-398.22615"
     inkscape:document-units="px"
     inkscape:current-layer="layer1"
     showgrid="false"
     fit-margin-top="0"
     fit-margin-left="0"
     fit-margin-right="0"
     fit-margin-bottom="0"
     inkscape:window-width="1920"
     inkscape:window-height="1014"
     inkscape:window-x="0"
     inkscape:window-y="27"
     inkscape:window-maximized="1" />
  <metadata
     id="metadata4576">
    <rdf:RDF>
      <cc:Work
         rdf:about="">
        <dc:format>image/svg+xml</dc:format>
        <dc:type
           rdf:resource="http://purl.org/dc/dcmitype/StillImage" />
        <dc:title></dc:title>
      </cc:Work>
    </rdf:RDF>
  </metadata>
  <g
     inkscape:label="Calque 1"
     inkscape:groupmode="layer"
     id="layer1"
     transform="translate(-440.37091,-62.016918)">
    <polyline
       transform="translate(197.72111,-284.8749)"
       style="fill:none;stroke:#3953a4;stroke-width:0.34310001;stroke-miterlimit:10"
       points="281.758,380.042 245.408,396.991    302.938,394.788 281.758,380.042 281.758,380.042 302.938,394.788 281.758,380.042 258.754,347.192 281.758,380.042    281.758,380.042 281.758,380.042 245.408,396.991 281.758,380.042 264.711,416.391 281.758,380.042 292.141,418.782    281.758,380.042 281.758,380.042 281.758,380.042 281.758,380.042 281.758,380.042 310.221,351.6 281.758,380.042 258.754,347.192    242.96,369.997 245.408,396.991 264.711,416.391 292.141,418.782 281.758,380.042 310.221,351.6 302.938,394.788 292.141,418.782    245.408,396.991 258.754,347.192 310.221,351.6 302.938,394.788 264.711,416.391 242.96,369.997 281.758,380.042  "
       id="polyline28" />
  </g>
</svg>
