<?xml version="1.0" encoding="UTF-8" standalone="no"?>
<!-- Created with Inkscape (http://www.inkscape.org/) -->

<svg
   xmlns:dc="http://purl.org/dc/elements/1.1/"
   xmlns:cc="http://creativecommons.org/ns#"
   xmlns:rdf="http://www.w3.org/1999/02/22-rdf-syntax-ns#"
   xmlns:svg="http://www.w3.org/2000/svg"
   xmlns="http://www.w3.org/2000/svg"
   xmlns:sodipodi="http://sodipodi.sourceforge.net/DTD/sodipodi-0.dtd"
   xmlns:inkscape="http://www.inkscape.org/namespaces/inkscape"
   width="21.830496mm"
   height="22.381832mm"
   viewBox="0 0 77.352151 79.305704"
   id="svg4619"
   version="1.1"
   inkscape:version="0.91 r13725"
   sodipodi:docname="dessin25.svg">
  <defs
     id="defs4621" />
  <sodipodi:namedview
     id="base"
     pagecolor="#ffffff"
     bordercolor="#666666"
     borderopacity="1.0"
     inkscape:pageopacity="0.0"
     inkscape:pageshadow="2"
     inkscape:zoom="0.35"
     inkscape:cx="-617.7525"
     inkscape:cy="-191.77572"
     inkscape:document-units="px"
     inkscape:current-layer="layer1"
     showgrid="false"
     fit-margin-top="0"
     fit-margin-left="0"
     fit-margin-right="0"
     fit-margin-bottom="0"
     inkscape:window-width="1920"
     inkscape:window-height="1014"
     inkscape:window-x="0"
     inkscape:window-y="27"
     inkscape:window-maximized="1" />
  <metadata
     id="metadata4624">
    <rdf:RDF>
      <cc:Work
         rdf:about="">
        <dc:format>image/svg+xml</dc:format>
        <dc:type
           rdf:resource="http://purl.org/dc/dcmitype/StillImage" />
        <dc:title></dc:title>
      </cc:Work>
    </rdf:RDF>
  </metadata>
  <g
     inkscape:label="Calque 1"
     inkscape:groupmode="layer"
     id="layer1"
     transform="translate(-364.18107,-261.28078)">
    <polyline
       transform="translate(7.5477895,-78.424477)"
       style="fill:none;stroke:#3953a4;stroke-width:0.34310001;stroke-miterlimit:10"
       points="397.248,340.086 433.741,376.545    414.964,394.788 397.248,340.086 357.435,396.991 414.964,394.788 393.785,380.042 404.168,418.782 393.785,380.042    404.235,418.782 393.785,380.042 357.435,396.991 393.785,380.042 376.738,416.391 393.785,380.042 404.168,418.782    393.785,380.042 433.741,376.545 393.785,380.042 397.248,340.086 393.785,380.042 404.168,418.782 397.248,340.086    404.168,418.782 404.235,418.782 357.435,396.991 376.738,416.391 404.168,418.782 433.741,376.545 404.168,418.782    414.964,394.788 404.168,418.782 357.435,396.991 404.168,418.782 404.168,418.782 414.964,394.788 376.738,416.391    404.235,418.782 397.248,340.086  "
       id="polyline30" />
  </g>
</svg>
