<?xml version="1.0" encoding="UTF-8" standalone="no"?>
<!-- Created with Inkscape (http://www.inkscape.org/) -->

<svg
   xmlns:dc="http://purl.org/dc/elements/1.1/"
   xmlns:cc="http://creativecommons.org/ns#"
   xmlns:rdf="http://www.w3.org/1999/02/22-rdf-syntax-ns#"
   xmlns:svg="http://www.w3.org/2000/svg"
   xmlns="http://www.w3.org/2000/svg"
   xmlns:sodipodi="http://sodipodi.sourceforge.net/DTD/sodipodi-0.dtd"
   xmlns:inkscape="http://www.inkscape.org/namespaces/inkscape"
   width="22.383152mm"
   height="22.351673mm"
   viewBox="0 0 79.310381 79.198841"
   id="svg3478"
   version="1.1"
   inkscape:version="0.91 r13725"
   sodipodi:docname="dessin02.svg">
  <defs
     id="defs3480" />
  <sodipodi:namedview
     id="base"
     pagecolor="#ffffff"
     bordercolor="#666666"
     borderopacity="1.0"
     inkscape:pageopacity="0.0"
     inkscape:pageshadow="2"
     inkscape:zoom="0.35"
     inkscape:cx="83.226623"
     inkscape:cy="-283.25773"
     inkscape:document-units="px"
     inkscape:current-layer="layer1"
     showgrid="false"
     fit-margin-top="0"
     fit-margin-left="0"
     fit-margin-right="0"
     fit-margin-bottom="0"
     inkscape:window-width="1920"
     inkscape:window-height="1014"
     inkscape:window-x="0"
     inkscape:window-y="27"
     inkscape:window-maximized="1" />
  <metadata
     id="metadata3483">
    <rdf:RDF>
      <cc:Work
         rdf:about="">
        <dc:format>image/svg+xml</dc:format>
        <dc:type
           rdf:resource="http://purl.org/dc/dcmitype/StillImage" />
        <dc:title></dc:title>
      </cc:Work>
    </rdf:RDF>
  </metadata>
  <g
     inkscape:label="Calque 1"
     inkscape:groupmode="layer"
     id="layer1"
     transform="translate(336.79805,-169.90564)">
    <polyline
       transform="translate(-464.19118,144.31243)"
       style="fill:none;stroke:#3953a4;stroke-width:0.3425;stroke-miterlimit:10"
       points="166.346,65.713 206.239,62.222    187.493,80.436 166.346,65.713 166.346,65.713 187.493,80.436 166.346,65.713 166.346,65.713 166.346,65.713 127.609,55.684    166.346,65.713 166.346,65.713 166.346,65.713 166.346,65.713 166.346,65.713 166.346,65.713 166.346,65.713 206.239,62.222    166.346,65.713 169.804,25.822 166.346,65.713 166.346,65.713 169.804,25.822 143.379,32.917 127.609,55.684 130.053,82.636    166.346,65.713 176.713,104.393 206.239,62.222 194.765,37.316 187.493,80.436 176.713,104.393 130.053,82.636 143.379,32.917    194.765,37.316 187.493,80.436 149.326,102.005 127.609,55.684 169.804,25.822  "
       id="polyline14" />
  </g>
</svg>
