<?xml version="1.0" encoding="UTF-8" standalone="no"?>
<!-- Created with Inkscape (http://www.inkscape.org/) -->

<svg
   xmlns:dc="http://purl.org/dc/elements/1.1/"
   xmlns:cc="http://creativecommons.org/ns#"
   xmlns:rdf="http://www.w3.org/1999/02/22-rdf-syntax-ns#"
   xmlns:svg="http://www.w3.org/2000/svg"
   xmlns="http://www.w3.org/2000/svg"
   xmlns:sodipodi="http://sodipodi.sourceforge.net/DTD/sodipodi-0.dtd"
   xmlns:inkscape="http://www.inkscape.org/namespaces/inkscape"
   width="21.767162mm"
   height="22.381664mm"
   viewBox="0 0 77.127741 79.305109"
   id="svg4127"
   version="1.1"
   inkscape:version="0.91 r13725"
   sodipodi:docname="dessin15.svg">
  <defs
     id="defs4129" />
  <sodipodi:namedview
     id="base"
     pagecolor="#ffffff"
     bordercolor="#666666"
     borderopacity="1.0"
     inkscape:pageopacity="0.0"
     inkscape:pageshadow="2"
     inkscape:zoom="0.35"
     inkscape:cx="-335.00756"
     inkscape:cy="16.795409"
     inkscape:document-units="px"
     inkscape:current-layer="layer1"
     showgrid="false"
     fit-margin-top="0"
     fit-margin-left="0"
     fit-margin-right="0"
     fit-margin-bottom="0"
     inkscape:window-width="1920"
     inkscape:window-height="1014"
     inkscape:window-x="0"
     inkscape:window-y="27"
     inkscape:window-maximized="1" />
  <metadata
     id="metadata4132">
    <rdf:RDF>
      <cc:Work
         rdf:about="">
        <dc:format>image/svg+xml</dc:format>
        <dc:type
           rdf:resource="http://purl.org/dc/dcmitype/StillImage" />
        <dc:title></dc:title>
      </cc:Work>
    </rdf:RDF>
  </metadata>
  <g
     inkscape:label="Calque 1"
     inkscape:groupmode="layer"
     id="layer1"
     transform="translate(-81.436129,-469.8525)">
    <polyline
       transform="translate(56.517587,233.45656)"
       style="fill:none;stroke:#3953a4;stroke-width:0.3425;stroke-miterlimit:10"
       points="65.47,236.776 34.083,289.69    83.16,291.39 65.47,236.776 25.72,293.59 83.16,291.39 62.013,276.667 39.046,243.871 62.013,276.667 72.38,315.347    62.013,276.667 25.72,293.59 62.013,276.667 44.993,312.959 62.013,276.667 68.587,246.4 62.013,276.667 101.906,273.176    62.013,276.667 65.47,236.776 62.013,276.667 68.587,246.4 65.47,236.776 39.046,243.871 72.38,315.347 25.72,293.59    44.993,312.959 72.38,315.347 101.906,273.176 72.38,315.347 83.16,291.39 72.38,315.347 25.72,293.59 39.046,243.871    90.432,248.271 83.16,291.39 44.993,312.959 72.38,315.347 65.47,236.776  "
       id="polyline10" />
  </g>
</svg>
