<?xml version="1.0" encoding="UTF-8" standalone="no"?>
<!-- Created with Inkscape (http://www.inkscape.org/) -->

<svg
   xmlns:dc="http://purl.org/dc/elements/1.1/"
   xmlns:cc="http://creativecommons.org/ns#"
   xmlns:rdf="http://www.w3.org/1999/02/22-rdf-syntax-ns#"
   xmlns:svg="http://www.w3.org/2000/svg"
   xmlns="http://www.w3.org/2000/svg"
   xmlns:sodipodi="http://sodipodi.sourceforge.net/DTD/sodipodi-0.dtd"
   xmlns:inkscape="http://www.inkscape.org/namespaces/inkscape"
   width="22.466385mm"
   height="19.187576mm"
   viewBox="0 0 79.605301 67.987475"
   id="svg4079"
   version="1.1"
   inkscape:version="0.91 r13725"
   sodipodi:docname="dessin14.svg">
  <defs
     id="defs4081" />
  <sodipodi:namedview
     id="base"
     pagecolor="#ffffff"
     bordercolor="#666666"
     borderopacity="1.0"
     inkscape:pageopacity="0.0"
     inkscape:pageshadow="2"
     inkscape:zoom="0.35"
     inkscape:cx="-390.91163"
     inkscape:cy="-248.8634"
     inkscape:document-units="px"
     inkscape:current-layer="layer1"
     showgrid="false"
     fit-margin-top="0"
     fit-margin-left="0"
     fit-margin-right="0"
     fit-margin-bottom="0"
     inkscape:window-width="1920"
     inkscape:window-height="1014"
     inkscape:window-x="0"
     inkscape:window-y="27"
     inkscape:window-maximized="1" />
  <metadata
     id="metadata4084">
    <rdf:RDF>
      <cc:Work
         rdf:about="">
        <dc:format>image/svg+xml</dc:format>
        <dc:type
           rdf:resource="http://purl.org/dc/dcmitype/StillImage" />
        <dc:title></dc:title>
      </cc:Work>
    </rdf:RDF>
  </metadata>
  <g
     inkscape:label="Calque 1"
     inkscape:groupmode="layer"
     id="layer1"
     transform="translate(-137.3402,-215.51132)">
    <polyline
       transform="translate(-533.12184,83.25384)"
       style="fill:none;stroke:#3953a4;stroke-width:0.34310001;stroke-miterlimit:10"
       points="673.168,178.225 749.475,157.779    730.698,176.022 673.168,178.225 673.168,178.225 730.698,176.022 709.519,161.276 730.698,176.022 709.519,161.276    670.721,151.23 709.519,161.276 673.168,178.225 709.519,161.276 692.472,197.625 709.519,161.276 719.902,200.016    709.519,161.276 749.475,157.779 709.519,161.276 673.168,178.225 709.519,161.276 737.982,132.834 673.168,178.225    730.698,176.022 670.721,151.23 673.168,178.225 692.472,197.625 719.902,200.016 749.475,157.779 737.982,132.834    730.698,176.022 719.902,200.016 673.168,178.225 730.698,176.022 737.982,132.834 730.698,176.022 692.472,197.625    670.721,151.23 673.168,178.225  "
       id="polyline66" />
  </g>
</svg>
