<?xml version="1.0" encoding="UTF-8" standalone="no"?>
<!-- Created with Inkscape (http://www.inkscape.org/) -->

<svg
   xmlns:dc="http://purl.org/dc/elements/1.1/"
   xmlns:cc="http://creativecommons.org/ns#"
   xmlns:rdf="http://www.w3.org/1999/02/22-rdf-syntax-ns#"
   xmlns:svg="http://www.w3.org/2000/svg"
   xmlns="http://www.w3.org/2000/svg"
   xmlns:sodipodi="http://sodipodi.sourceforge.net/DTD/sodipodi-0.dtd"
   xmlns:inkscape="http://www.inkscape.org/namespaces/inkscape"
   width="22.34309mm"
   height="21.825745mm"
   viewBox="0 0 79.168429 77.335315"
   id="svg4223"
   version="1.1"
   inkscape:version="0.91 r13725"
   sodipodi:docname="dessin17.svg">
  <defs
     id="defs4225" />
  <sodipodi:namedview
     id="base"
     pagecolor="#ffffff"
     bordercolor="#666666"
     borderopacity="1.0"
     inkscape:pageopacity="0.0"
     inkscape:pageshadow="2"
     inkscape:zoom="0.35"
     inkscape:cx="-462.55864"
     inkscape:cy="-307.04663"
     inkscape:document-units="px"
     inkscape:current-layer="layer1"
     showgrid="false"
     fit-margin-top="0"
     fit-margin-left="0"
     fit-margin-right="0"
     fit-margin-bottom="0"
     inkscape:window-width="1920"
     inkscape:window-height="1014"
     inkscape:window-x="0"
     inkscape:window-y="27"
     inkscape:window-maximized="1" />
  <metadata
     id="metadata4228">
    <rdf:RDF>
      <cc:Work
         rdf:about="">
        <dc:format>image/svg+xml</dc:format>
        <dc:type
           rdf:resource="http://purl.org/dc/dcmitype/StillImage" />
        <dc:title></dc:title>
      </cc:Work>
    </rdf:RDF>
  </metadata>
  <g
     inkscape:label="Calque 1"
     inkscape:groupmode="layer"
     id="layer1"
     transform="translate(-208.98721,-147.98026)">
    <polyline
       transform="translate(-28.289918,-89.13265)"
       style="fill:none;stroke:#3953a4;stroke-width:0.3425;stroke-miterlimit:10"
       points="288.603,265.497 316.122,274.37    297.376,292.584 279.687,237.97 276.229,277.861 297.376,292.584 276.229,277.861 288.603,265.497 276.229,277.861    276.229,277.861 276.229,277.861 239.937,294.784 276.229,277.861 259.209,314.154 276.229,277.861 276.229,277.861    276.229,277.861 316.122,274.37 276.229,277.861 279.687,237.97 276.229,277.861 304.648,249.464 279.687,237.97 288.603,265.497    237.493,267.832 239.937,294.784 259.209,314.154 276.229,277.861 316.122,274.37 304.648,249.464 297.376,292.584    276.229,277.861 239.937,294.784 253.263,245.064 304.648,249.464 297.376,292.584 259.209,314.154 237.493,267.832    279.687,237.97  "
       id="polyline6" />
  </g>
</svg>
