<?xml version="1.0" encoding="UTF-8" standalone="no"?>
<!-- Created with Inkscape (http://www.inkscape.org/) -->

<svg
   xmlns:dc="http://purl.org/dc/elements/1.1/"
   xmlns:cc="http://creativecommons.org/ns#"
   xmlns:rdf="http://www.w3.org/1999/02/22-rdf-syntax-ns#"
   xmlns:svg="http://www.w3.org/2000/svg"
   xmlns="http://www.w3.org/2000/svg"
   xmlns:sodipodi="http://sodipodi.sourceforge.net/DTD/sodipodi-0.dtd"
   xmlns:inkscape="http://www.inkscape.org/namespaces/inkscape"
   width="21.704899mm"
   height="22.289295mm"
   viewBox="0 0 76.907122 78.977817"
   id="svg4667"
   version="1.1"
   inkscape:version="0.91 r13725"
   sodipodi:docname="dessin26.svg">
  <defs
     id="defs4669" />
  <sodipodi:namedview
     id="base"
     pagecolor="#ffffff"
     bordercolor="#666666"
     borderopacity="1.0"
     inkscape:pageopacity="0.0"
     inkscape:pageshadow="2"
     inkscape:zoom="0.35"
     inkscape:cx="-457.97501"
     inkscape:cy="-337.65394"
     inkscape:document-units="px"
     inkscape:current-layer="layer1"
     showgrid="false"
     fit-margin-top="0"
     fit-margin-left="0"
     fit-margin-right="0"
     fit-margin-bottom="0"
     inkscape:window-width="1920"
     inkscape:window-height="1014"
     inkscape:window-x="0"
     inkscape:window-y="27"
     inkscape:window-maximized="1" />
  <metadata
     id="metadata4672">
    <rdf:RDF>
      <cc:Work
         rdf:about="">
        <dc:format>image/svg+xml</dc:format>
        <dc:type
           rdf:resource="http://purl.org/dc/dcmitype/StillImage" />
        <dc:title></dc:title>
      </cc:Work>
    </rdf:RDF>
  </metadata>
  <g
     inkscape:label="Calque 1"
     inkscape:groupmode="layer"
     id="layer1"
     transform="translate(-204.40358,-115.73044)">
    <polyline
       transform="translate(-264.78245,-224.3027)"
       style="fill:none;stroke:#3953a4;stroke-width:0.34310001;stroke-miterlimit:10"
       points="518.204,367.658 545.769,376.545    526.991,394.788 518.204,367.658 505.812,380.042 526.991,394.788 505.812,380.042 518.204,367.658 505.812,380.042    518.204,367.658 505.812,380.042 505.812,380.042 505.812,380.042 505.812,380.042 505.812,380.042 505.812,380.042    505.812,380.042 545.769,376.545 505.812,380.042 509.274,340.086 505.812,380.042 518.204,367.658 509.274,340.086    518.204,367.658 518.204,367.658 469.462,396.991 488.765,416.391 516.194,418.782 545.769,376.545 534.274,351.6 526.991,394.788    516.194,418.782 469.462,396.991 482.808,347.192 534.274,351.6 526.991,394.788 488.765,416.391 518.204,367.658 509.274,340.086     "
       id="polyline32" />
  </g>
</svg>
