<?xml version="1.0" encoding="UTF-8" standalone="no"?>
<!-- Created with Inkscape (http://www.inkscape.org/) -->

<svg
   xmlns:dc="http://purl.org/dc/elements/1.1/"
   xmlns:cc="http://creativecommons.org/ns#"
   xmlns:rdf="http://www.w3.org/1999/02/22-rdf-syntax-ns#"
   xmlns:svg="http://www.w3.org/2000/svg"
   xmlns="http://www.w3.org/2000/svg"
   xmlns:sodipodi="http://sodipodi.sourceforge.net/DTD/sodipodi-0.dtd"
   xmlns:inkscape="http://www.inkscape.org/namespaces/inkscape"
   width="22.40962mm"
   height="13.931648mm"
   viewBox="0 0 79.404166 49.364108"
   id="svg3881"
   version="1.1"
   inkscape:version="0.91 r13725"
   sodipodi:docname="dessin10.svg">
  <defs
     id="defs3883" />
  <sodipodi:namedview
     id="base"
     pagecolor="#ffffff"
     bordercolor="#666666"
     borderopacity="1.0"
     inkscape:pageopacity="0.0"
     inkscape:pageshadow="2"
     inkscape:zoom="0.35"
     inkscape:cx="-605.29792"
     inkscape:cy="-178.17509"
     inkscape:document-units="px"
     inkscape:current-layer="layer1"
     showgrid="false"
     fit-margin-top="0"
     fit-margin-left="0"
     fit-margin-right="0"
     fit-margin-bottom="0"
     inkscape:window-width="1920"
     inkscape:window-height="1014"
     inkscape:window-x="0"
     inkscape:window-y="27"
     inkscape:window-maximized="1" />
  <metadata
     id="metadata3886">
    <rdf:RDF>
      <cc:Work
         rdf:about="">
        <dc:format>image/svg+xml</dc:format>
        <dc:type
           rdf:resource="http://purl.org/dc/dcmitype/StillImage" />
        <dc:title></dc:title>
      </cc:Work>
    </rdf:RDF>
  </metadata>
  <g
     inkscape:label="Calque 1"
     inkscape:groupmode="layer"
     id="layer1"
     transform="translate(-351.72649,-304.823)">
    <polyline
       transform="translate(112.94515,163.00907)"
       style="fill:none;stroke:#3953a4;stroke-width:0.3425;stroke-miterlimit:10"
       points="277.828,152.1 317.721,148.609    298.975,166.823 277.828,152.1 277.828,152.1 298.975,166.823 277.828,152.1 277.828,152.1 277.828,152.1 277.828,152.1    277.828,152.1 277.828,152.1 277.828,152.1 277.828,152.1 277.828,152.1 277.828,152.1 277.828,152.1 317.721,148.609    277.828,152.1 277.828,152.1 277.828,152.1 277.828,152.1 277.828,152.1 277.828,152.1 239.091,142.071 277.828,152.1    277.828,152.1 288.194,190.779 317.721,148.609 277.828,152.1 298.975,166.823 288.194,190.779 241.535,169.023 277.828,152.1    277.828,152.1 298.975,166.823 260.808,188.392 239.091,142.071 277.828,152.1  "
       id="polyline16" />
  </g>
</svg>
