<?xml version="1.0" encoding="UTF-8" standalone="no"?>
<!-- Created with Inkscape (http://www.inkscape.org/) -->

<svg
   xmlns:dc="http://purl.org/dc/elements/1.1/"
   xmlns:cc="http://creativecommons.org/ns#"
   xmlns:rdf="http://www.w3.org/1999/02/22-rdf-syntax-ns#"
   xmlns:svg="http://www.w3.org/2000/svg"
   xmlns="http://www.w3.org/2000/svg"
   xmlns:sodipodi="http://sodipodi.sourceforge.net/DTD/sodipodi-0.dtd"
   xmlns:inkscape="http://www.inkscape.org/namespaces/inkscape"
   width="19.126978mm"
   height="22.381832mm"
   viewBox="0 0 67.772756 79.305704"
   id="svg5005"
   version="1.1"
   inkscape:version="0.91 r13725"
   sodipodi:docname="dessin32.svg">
  <defs
     id="defs5007" />
  <sodipodi:namedview
     id="base"
     pagecolor="#ffffff"
     bordercolor="#666666"
     borderopacity="1.0"
     inkscape:pageopacity="0.0"
     inkscape:pageshadow="2"
     inkscape:zoom="0.35"
     inkscape:cx="-419.68505"
     inkscape:cy="-11.77572"
     inkscape:document-units="px"
     inkscape:current-layer="layer1"
     showgrid="false"
     fit-margin-top="0"
     fit-margin-left="0"
     fit-margin-right="0"
     fit-margin-bottom="0"
     inkscape:window-width="1920"
     inkscape:window-height="1014"
     inkscape:window-x="0"
     inkscape:window-y="27"
     inkscape:window-maximized="1" />
  <metadata
     id="metadata5010">
    <rdf:RDF>
      <cc:Work
         rdf:about="">
        <dc:format>image/svg+xml</dc:format>
        <dc:type
           rdf:resource="http://purl.org/dc/dcmitype/StillImage" />
        <dc:title></dc:title>
      </cc:Work>
    </rdf:RDF>
  </metadata>
  <g
     inkscape:label="Calque 1"
     inkscape:groupmode="layer"
     id="layer1"
     transform="translate(-166.11362,-441.28078)">
    <polyline
       transform="translate(-188.65713,-9.7574767)"
       style="fill:none;stroke:#3953a4;stroke-width:0.34310001;stroke-miterlimit:10"
       points="397.248,451.419 393.785,491.375    414.964,506.121 397.248,451.419 357.435,508.324 414.964,506.121 393.785,491.375 393.785,491.375 393.785,491.375    354.987,481.33 393.785,491.375 357.435,508.324 393.785,491.375 376.738,527.724 393.785,491.375 404.168,530.115    393.785,491.375 393.785,491.375 393.785,491.375 397.248,451.419 393.785,491.375 422.248,462.933 397.248,451.419    393.785,491.375 354.987,481.33 357.435,508.324 376.738,527.724 404.168,530.115 393.785,491.375 422.248,462.933    414.964,506.121 404.168,530.115 357.435,508.324 393.785,491.375 422.248,462.933 414.964,506.121 376.738,527.724    354.987,481.33 397.248,451.419  "
       id="polyline44" />
  </g>
</svg>
