<?xml version="1.0" encoding="UTF-8" standalone="no"?>
<!-- Created with Inkscape (http://www.inkscape.org/) -->

<svg
   xmlns:dc="http://purl.org/dc/elements/1.1/"
   xmlns:cc="http://creativecommons.org/ns#"
   xmlns:rdf="http://www.w3.org/1999/02/22-rdf-syntax-ns#"
   xmlns:svg="http://www.w3.org/2000/svg"
   xmlns="http://www.w3.org/2000/svg"
   xmlns:sodipodi="http://sodipodi.sourceforge.net/DTD/sodipodi-0.dtd"
   xmlns:inkscape="http://www.inkscape.org/namespaces/inkscape"
   width="22.447731mm"
   height="20.573578mm"
   viewBox="0 0 79.539204 72.898504"
   id="svg4373"
   version="1.1"
   inkscape:version="0.91 r13725"
   sodipodi:docname="dessin20.svg">
  <defs
     id="defs4375" />
  <sodipodi:namedview
     id="base"
     pagecolor="#ffffff"
     bordercolor="#666666"
     borderopacity="1.0"
     inkscape:pageopacity="0.0"
     inkscape:pageshadow="2"
     inkscape:zoom="0.35"
     inkscape:cx="-468.08755"
     inkscape:cy="-152.12217"
     inkscape:document-units="px"
     inkscape:current-layer="layer1"
     showgrid="false"
     fit-margin-top="0"
     fit-margin-left="0"
     fit-margin-right="0"
     fit-margin-bottom="0"
     inkscape:window-width="1920"
     inkscape:window-height="1014"
     inkscape:window-x="0"
     inkscape:window-y="27"
     inkscape:window-maximized="1" />
  <metadata
     id="metadata4378">
    <rdf:RDF>
      <cc:Work
         rdf:about="">
        <dc:format>image/svg+xml</dc:format>
        <dc:type
           rdf:resource="http://purl.org/dc/dcmitype/StillImage" />
        <dc:title></dc:title>
      </cc:Work>
    </rdf:RDF>
  </metadata>
  <g
     inkscape:label="Calque 1"
     inkscape:groupmode="layer"
     id="layer1"
     transform="translate(-214.51612,-307.34152)">
    <polyline
       transform="translate(-342.21303,64.431288)"
       style="fill:none;stroke:#3953a4;stroke-width:0.34310001;stroke-miterlimit:10"
       points="559.37,293.618 635.676,273.172    616.899,291.415 559.37,293.618 559.37,293.618 616.899,291.415 616.899,291.415 572.716,243.82 595.72,276.669 556.922,266.624    595.72,276.669 559.37,293.618 595.72,276.669 595.72,276.669 595.72,276.669 606.103,315.409 595.72,276.669 635.676,273.172    595.72,276.669 559.37,293.618 595.72,276.669 595.425,276.708 559.37,293.618 572.716,243.82 556.922,266.624 559.37,293.618    595.72,276.669 606.103,315.409 635.676,273.172 595.425,276.708 616.899,291.415 606.103,315.409 559.37,293.618 572.716,243.82    595.425,276.708 616.899,291.415 595.72,276.669 556.922,266.624 559.37,293.618  "
       id="polyline56" />
  </g>
</svg>
