<?xml version="1.0" encoding="utf-8"?>
<!-- Generator: Adobe Illustrator 16.0.0, SVG Export Plug-In . SVG Version: 6.00 Build 0)  -->
<!DOCTYPE svg PUBLIC "-//W3C//DTD SVG 1.1//EN" "http://www.w3.org/Graphics/SVG/1.1/DTD/svg11.dtd">
<svg version="1.1" id="Calque_1" xmlns="http://www.w3.org/2000/svg" xmlns:xlink="http://www.w3.org/1999/xlink" x="0px" y="0px"
	 width="841.889px" height="1190.551px" viewBox="0 0 841.889 1190.551" enable-background="new 0 0 841.889 1190.551"
	 xml:space="preserve">
<polygon id="XMLID_56_" fill="none" stroke="#000000" stroke-width="0.6466" stroke-miterlimit="10" points="1283.347,1135.824 
	1263.267,1119.844 1267.085,1162.692 1278.256,1145.864 1262.135,1188.005 1294.236,1173.581 1264.963,1185.742 1277.691,1185.742 
	1230.034,1160.005 1233.287,1185.742 1214.055,1149.399 1220.136,1175.277 1251.388,1140.066 1236.681,1146.713 1282.358,1130.308 
	1251.106,1121.541 "/>
<polygon id="XMLID_55_" fill="none" stroke="#000000" stroke-width="0.5302" stroke-miterlimit="10" points="439.823,568.195 
	429.924,562.397 433.742,590.679 445.055,588.558 439.116,620.234 461.035,616.134 446.187,628.295 444.49,628.295 407.156,612.881 
	400.086,628.295 380.854,606.517 386.935,617.831 407.864,592.801 403.339,589.265 434.591,572.861 417.905,564.094 "/>
</svg>
