<?xml version="1.0" encoding="utf-8"?>
<!-- Generator: Adobe Illustrator 16.0.0, SVG Export Plug-In . SVG Version: 6.00 Build 0)  -->
<!DOCTYPE svg PUBLIC "-//W3C//DTD SVG 1.1//EN" "http://www.w3.org/Graphics/SVG/1.1/DTD/svg11.dtd">
<svg version="1.1" id="Calque_1" xmlns="http://www.w3.org/2000/svg" xmlns:xlink="http://www.w3.org/1999/xlink" x="0px" y="0px"
	 width="841.889px" height="1190.551px" viewBox="0 0 841.889 1190.551" enable-background="new 0 0 841.889 1190.551"
	 xml:space="preserve">
<polygon id="XMLID_56_" fill="none" stroke="#000000" stroke-width="0.6466" stroke-miterlimit="10" points="1283.347,1135.824 
	1263.267,1119.844 1267.085,1162.692 1278.256,1145.864 1262.135,1188.005 1294.236,1173.581 1264.963,1185.742 1277.691,1185.742 
	1230.034,1160.005 1233.287,1185.742 1214.055,1149.399 1220.136,1175.277 1251.388,1140.066 1236.681,1146.713 1282.358,1130.308 
	1251.106,1121.541 "/>
<polygon id="XMLID_54_" fill="none" stroke="#000000" stroke-width="0.4527" stroke-miterlimit="10" points="1828.775,1120.41 
	1825.805,1121.399 1829.623,1140.066 1840.794,1147.56 1841.784,1172.591 1856.915,1175.277 1851.683,1187.298 1840.37,1187.298 
	1809.684,1178.812 1795.825,1187.298 1776.735,1175.277 1782.674,1176.833 1796.815,1158.732 1799.219,1148.267 1820.714,1132.006 
	1813.643,1123.238 "/>
<polygon id="XMLID_1_" fill="none" stroke="#000000" stroke-width="0.4527" stroke-miterlimit="10" points="434.026,561.831 
	431.056,562.821 434.873,581.487 446.187,588.982 447.035,614.012 462.166,616.699 456.934,628.719 445.621,628.719 
	415.076,620.234 401.076,628.719 381.986,616.699 388.067,618.255 402.066,600.154 404.47,589.689 425.965,573.427 419.035,564.659 
	"/>
</svg>
