<?xml version="1.0" encoding="utf-8"?>
<!-- Generator: Adobe Illustrator 16.0.0, SVG Export Plug-In . SVG Version: 6.00 Build 0)  -->
<!DOCTYPE svg PUBLIC "-//W3C//DTD SVG 1.1//EN" "http://www.w3.org/Graphics/SVG/1.1/DTD/svg11.dtd">
<svg version="1.1" id="Layer_1" xmlns="http://www.w3.org/2000/svg" xmlns:xlink="http://www.w3.org/1999/xlink" x="0px" y="0px"
	 width="640px" height="480px" viewBox="0 0 640 480" enable-background="new 0 0 640 480" xml:space="preserve">
<path fill="none" stroke="#000000" stroke-width="1.1915" stroke-miterlimit="10" d="M316.129,274.091
	c7.72,0,14.841-2.572,20.55-6.907c8.182-6.213,13.466-16.044,13.466-27.108c0-10.04-4.351-19.063-11.268-25.29
	c-6.026-5.424-14.002-8.726-22.749-8.726v7.057c-8.347,0-15.809,3.794-20.754,9.752c-3.874,4.668-6.204,10.666-6.204,17.206
	c0,7.746,3.267,14.698,8.499,19.585c4.824,4.506,11.317,7.257,18.459,7.257l0-11.509c8.468,0,15.333-6.865,15.333-15.333
	c0-8.468-6.865-15.333-15.333-15.333v30.666c-8.468,0-15.333-6.865-15.333-15.333c0-8.468,6.865-15.333,15.333-15.333l0-11.625
	c7.815,0,14.853,3.325,19.777,8.639c4.457,4.809,7.182,11.247,7.182,18.32c0,8.126-2.863,15.38-7.886,20.292
	c-4.179,4.088-9.852,6.555-16.613,6.555l-2.46-0.005V274.091z"/>
</svg>
